<svg width="24" height="25" viewBox="0 0 24 25" fill="none" xmlns="http://www.w3.org/2000/svg">
<mask id="mask0_677_39793" style="mask-type:alpha" maskUnits="userSpaceOnUse" x="0" y="0" width="24" height="25">
<rect y="0.258179" width="24" height="24" fill="#D9D9D9"/>
</mask>
<g mask="url(#mask0_677_39793)">
<path fill-rule="evenodd" clip-rule="evenodd" d="M17.2427 12.8213C17.2202 10.5426 19.1012 9.44914 19.1853 9.395C18.128 7.84842 16.4807 7.63584 15.8938 7.61193C14.4921 7.47042 13.1591 8.43769 12.4469 8.43769C11.7367 8.43769 10.6392 7.63317 9.47697 7.65446C7.94932 7.67704 6.54091 8.54298 5.75337 9.9112C4.16624 12.6649 5.34742 16.7462 6.89436 18.9791C7.65003 20.0725 8.55121 21.3009 9.73472 21.257C10.874 21.2122 11.3052 20.519 12.6834 20.519C14.0612 20.519 14.4482 21.2571 15.6543 21.2335C16.8807 21.2109 17.6576 20.1187 18.4083 19.0216C19.2769 17.7527 19.633 16.5256 19.6546 16.4625C19.6273 16.4502 17.2633 15.5448 17.2394 12.8223L17.2427 12.8213H17.2427ZM14.9774 6.13243C15.6052 5.37077 16.0293 4.31347 15.9134 3.25818C15.0089 3.29505 13.9121 3.86106 13.2627 4.62173C12.6798 5.29703 12.1705 6.37325 12.3067 7.40694C13.3169 7.48569 14.3482 6.89375 14.9764 6.13375L14.9774 6.13243Z" fill="white"/>
</g>
</svg>
