<svg width="56" height="100" viewBox="0 0 56 100" fill="none" xmlns="http://www.w3.org/2000/svg">
<mask id="mask0_679_39770" style="mask-type:alpha" maskUnits="userSpaceOnUse" x="16" y="16" width="24" height="24">
<rect x="16" y="16" width="24" height="24" fill="#D9D9D9"/>
</mask>
<g mask="url(#mask0_679_39770)">
<path d="M21.1 32.05C20.7333 31.4167 20.4583 30.7667 20.275 30.1C20.0917 29.4333 20 28.75 20 28.05C20 25.8167 20.775 23.9167 22.325 22.35C23.875 20.7833 25.7667 20 28 20H28.175L26.575 18.4L27.975 17L31.975 21L27.975 25L26.575 23.6L28.175 22H28C26.3333 22 24.9167 22.5875 23.75 23.7625C22.5833 24.9375 22 26.3667 22 28.05C22 28.4833 22.05 28.9083 22.15 29.325C22.25 29.7417 22.4 30.15 22.6 30.55L21.1 32.05ZM28.025 39L24.025 35L28.025 31L29.425 32.4L27.825 34H28C29.6667 34 31.0833 33.4125 32.25 32.2375C33.4167 31.0625 34 29.6333 34 27.95C34 27.5167 33.95 27.0917 33.85 26.675C33.75 26.2583 33.6 25.85 33.4 25.45L34.9 23.95C35.2667 24.5833 35.5417 25.2333 35.725 25.9C35.9083 26.5667 36 27.25 36 27.95C36 30.1833 35.225 32.0833 33.675 33.65C32.125 35.2167 30.2333 36 28 36H27.825L29.425 37.6L28.025 39Z" fill="#1C1B1F"/>
</g>
<mask id="mask1_679_39770" style="mask-type:alpha" maskUnits="userSpaceOnUse" x="16" y="60" width="24" height="24">
<rect x="16" y="60" width="24" height="24" fill="#D9D9D9"/>
</mask>
<g mask="url(#mask1_679_39770)">
<path d="M21.1 76.05C20.7333 75.4167 20.4583 74.7667 20.275 74.1C20.0917 73.4333 20 72.75 20 72.05C20 69.8167 20.775 67.9167 22.325 66.35C23.875 64.7833 25.7667 64 28 64H28.175L26.575 62.4L27.975 61L31.975 65L27.975 69L26.575 67.6L28.175 66H28C26.3333 66 24.9167 66.5875 23.75 67.7625C22.5833 68.9375 22 70.3667 22 72.05C22 72.4833 22.05 72.9083 22.15 73.325C22.25 73.7417 22.4 74.15 22.6 74.55L21.1 76.05ZM28.025 83L24.025 79L28.025 75L29.425 76.4L27.825 78H28C29.6667 78 31.0833 77.4125 32.25 76.2375C33.4167 75.0625 34 73.6333 34 71.95C34 71.5167 33.95 71.0917 33.85 70.675C33.75 70.2583 33.6 69.85 33.4 69.45L34.9 67.95C35.2667 68.5833 35.5417 69.2333 35.725 69.9C35.9083 70.5667 36 71.25 36 71.95C36 74.1833 35.225 76.0833 33.675 77.65C32.125 79.2167 30.2333 80 28 80H27.825L29.425 81.6L28.025 83Z" fill="#1C1B1F"/>
</g>
<rect x="0.5" y="0.5" width="55" height="99" rx="4.5" stroke="#9747FF" stroke-dasharray="10 5"/>
</svg>
