<svg width="56" height="100" viewBox="0 0 56 100" fill="none" xmlns="http://www.w3.org/2000/svg">
<mask id="mask0_663_39859" style="mask-type:alpha" maskUnits="userSpaceOnUse" x="16" y="16" width="24" height="24">
<rect x="16" y="16" width="24" height="24" fill="#D9D9D9"/>
</mask>
<g mask="url(#mask0_663_39859)">
<path d="M28 38C26.6167 38 25.3167 37.7373 24.1 37.212C22.8833 36.6873 21.825 35.975 20.925 35.075C20.025 34.175 19.3127 33.1167 18.788 31.9C18.2627 30.6833 18 29.3833 18 28C18 26.6167 18.2627 25.3167 18.788 24.1C19.3127 22.8833 20.025 21.825 20.925 20.925C21.825 20.025 22.8833 19.3123 24.1 18.787C25.3167 18.2623 26.6167 18 28 18C29.3833 18 30.6833 18.2623 31.9 18.787C33.1167 19.3123 34.175 20.025 35.075 20.925C35.975 21.825 36.6873 22.8833 37.212 24.1C37.7373 25.3167 38 26.6167 38 28C38 29.3833 37.7373 30.6833 37.212 31.9C36.6873 33.1167 35.975 34.175 35.075 35.075C34.175 35.975 33.1167 36.6873 31.9 37.212C30.6833 37.7373 29.3833 38 28 38ZM28 36C30.2333 36 32.125 35.225 33.675 33.675C35.225 32.125 36 30.2333 36 28C36 27.1 35.854 26.2333 35.562 25.4C35.2707 24.5667 34.85 23.8 34.3 23.1L23.1 34.3C23.8 34.85 24.5667 35.2707 25.4 35.562C26.2333 35.854 27.1 36 28 36ZM21.7 32.9L32.9 21.7C32.2 21.15 31.4333 20.7293 30.6 20.438C29.7667 20.146 28.9 20 28 20C25.7667 20 23.875 20.775 22.325 22.325C20.775 23.875 20 25.7667 20 28C20 28.9 20.146 29.7667 20.438 30.6C20.7293 31.4333 21.15 32.2 21.7 32.9Z" fill="#1C1B1F"/>
</g>
<mask id="mask1_663_39859" style="mask-type:alpha" maskUnits="userSpaceOnUse" x="16" y="60" width="24" height="24">
<rect x="16" y="60" width="24" height="24" fill="#D9D9D9"/>
</mask>
<g mask="url(#mask1_663_39859)">
<path d="M28 82C26.6167 82 25.3167 81.7373 24.1 81.212C22.8833 80.6873 21.825 79.975 20.925 79.075C20.025 78.175 19.3127 77.1167 18.788 75.9C18.2627 74.6833 18 73.3833 18 72C18 70.6167 18.2627 69.3167 18.788 68.1C19.3127 66.8833 20.025 65.825 20.925 64.925C21.825 64.025 22.8833 63.3123 24.1 62.787C25.3167 62.2623 26.6167 62 28 62C29.3833 62 30.6833 62.2623 31.9 62.787C33.1167 63.3123 34.175 64.025 35.075 64.925C35.975 65.825 36.6873 66.8833 37.212 68.1C37.7373 69.3167 38 70.6167 38 72C38 73.3833 37.7373 74.6833 37.212 75.9C36.6873 77.1167 35.975 78.175 35.075 79.075C34.175 79.975 33.1167 80.6873 31.9 81.212C30.6833 81.7373 29.3833 82 28 82ZM28 80C30.2333 80 32.125 79.225 33.675 77.675C35.225 76.125 36 74.2333 36 72C36 71.1 35.854 70.2333 35.562 69.4C35.2707 68.5667 34.85 67.8 34.3 67.1L23.1 78.3C23.8 78.85 24.5667 79.2707 25.4 79.562C26.2333 79.854 27.1 80 28 80ZM21.7 76.9L32.9 65.7C32.2 65.15 31.4333 64.7293 30.6 64.438C29.7667 64.146 28.9 64 28 64C25.7667 64 23.875 64.775 22.325 66.325C20.775 67.875 20 69.7667 20 72C20 72.9 20.146 73.7667 20.438 74.6C20.7293 75.4333 21.15 76.2 21.7 76.9Z" fill="#1C1B1F"/>
</g>
<rect x="0.5" y="0.5" width="55" height="99" rx="4.5" stroke="#9747FF" stroke-dasharray="10 5"/>
</svg>
