<svg width="56" height="100" viewBox="0 0 56 100" fill="none" xmlns="http://www.w3.org/2000/svg">
<mask id="mask0_698_40589" style="mask-type:alpha" maskUnits="userSpaceOnUse" x="16" y="16" width="24" height="24">
<rect x="16" y="16" width="24" height="24" fill="#D9D9D9"/>
</mask>
<g mask="url(#mask0_698_40589)">
<path d="M22.4 35L21 33.6L26.6 28L21 22.4L22.4 21L28 26.6L33.6 21L35 22.4L29.4 28L35 33.6L33.6 35L28 29.4L22.4 35Z" fill="#1C1B1F"/>
</g>
<mask id="mask1_698_40589" style="mask-type:alpha" maskUnits="userSpaceOnUse" x="16" y="60" width="24" height="24">
<rect x="16" y="60" width="24" height="24" fill="#D9D9D9"/>
</mask>
<g mask="url(#mask1_698_40589)">
<path d="M22.4 79L21 77.6L26.6 72L21 66.4L22.4 65L28 70.6L33.6 65L35 66.4L29.4 72L35 77.6L33.6 79L28 73.4L22.4 79Z" fill="#1C1B1F"/>
</g>
<rect x="0.5" y="0.5" width="55" height="99" rx="4.5" stroke="#9747FF" stroke-dasharray="10 5"/>
</svg>
