<svg width="56" height="100" viewBox="0 0 56 100" fill="none" xmlns="http://www.w3.org/2000/svg">
<mask id="mask0_646_39732" style="mask-type:alpha" maskUnits="userSpaceOnUse" x="16" y="16" width="24" height="24">
<rect x="16" y="16" width="24" height="24" fill="#D9D9D9"/>
</mask>
<g mask="url(#mask0_646_39732)">
<path d="M28 37L26.55 35.7C24.8667 34.1834 23.475 32.875 22.375 31.775C21.275 30.675 20.4 29.6874 19.75 28.812C19.1 27.9374 18.646 27.1334 18.388 26.4C18.1293 25.6667 18 24.9167 18 24.15C18 22.5834 18.525 21.275 19.575 20.225C20.625 19.175 21.9333 18.65 23.5 18.65C24.3667 18.65 25.1917 18.8334 25.975 19.2C26.7583 19.5667 27.4333 20.0834 28 20.75C28.5667 20.0834 29.2417 19.5667 30.025 19.2C30.8083 18.8334 31.6333 18.65 32.5 18.65C34.0667 18.65 35.375 19.175 36.425 20.225C37.475 21.275 38 22.5834 38 24.15C38 24.9167 37.871 25.6667 37.613 26.4C37.3543 27.1334 36.9 27.9374 36.25 28.812C35.6 29.6874 34.725 30.675 33.625 31.775C32.525 32.875 31.1333 34.1834 29.45 35.7L28 37ZM28 34.3C29.6 32.8667 30.9167 31.6374 31.95 30.612C32.9833 29.5874 33.8 28.696 34.4 27.938C35 27.1794 35.4167 26.504 35.65 25.912C35.8833 25.3207 36 24.7334 36 24.15C36 23.15 35.6667 22.3167 35 21.65C34.3333 20.9834 33.5 20.65 32.5 20.65C31.7167 20.65 30.9917 20.8707 30.325 21.312C29.6583 21.754 29.2 22.3167 28.95 23H27.05C26.8 22.3167 26.3417 21.754 25.675 21.312C25.0083 20.8707 24.2833 20.65 23.5 20.65C22.5 20.65 21.6667 20.9834 21 21.65C20.3333 22.3167 20 23.15 20 24.15C20 24.7334 20.1167 25.3207 20.35 25.912C20.5833 26.504 21 27.1794 21.6 27.938C22.2 28.696 23.0167 29.5874 24.05 30.612C25.0833 31.6374 26.4 32.8667 28 34.3Z" fill="#1C1B1F"/>
</g>
<mask id="mask1_646_39732" style="mask-type:alpha" maskUnits="userSpaceOnUse" x="16" y="60" width="24" height="24">
<rect x="16" y="60" width="24" height="24" fill="#D9D9D9"/>
</mask>
<g mask="url(#mask1_646_39732)">
<path d="M28 81L26.55 79.7C24.8667 78.1834 23.475 76.875 22.375 75.775C21.275 74.675 20.4 73.6874 19.75 72.812C19.1 71.9374 18.646 71.1334 18.388 70.4C18.1293 69.6667 18 68.9167 18 68.15C18 66.5834 18.525 65.275 19.575 64.225C20.625 63.175 21.9333 62.65 23.5 62.65C24.3667 62.65 25.1917 62.8334 25.975 63.2C26.7583 63.5667 27.4333 64.0834 28 64.75C28.5667 64.0834 29.2417 63.5667 30.025 63.2C30.8083 62.8334 31.6333 62.65 32.5 62.65C34.0667 62.65 35.375 63.175 36.425 64.225C37.475 65.275 38 66.5834 38 68.15C38 68.9167 37.871 69.6667 37.613 70.4C37.3543 71.1334 36.9 71.9374 36.25 72.812C35.6 73.6874 34.725 74.675 33.625 75.775C32.525 76.875 31.1333 78.1834 29.45 79.7L28 81Z" fill="#1C1B1F"/>
</g>
<rect x="0.5" y="0.5" width="55" height="99" rx="4.5" stroke="#9747FF" stroke-dasharray="10 5"/>
</svg>
