<svg width="24" height="25" viewBox="0 0 24 25" fill="none" xmlns="http://www.w3.org/2000/svg">
<mask id="mask0_677_39792" style="mask-type:alpha" maskUnits="userSpaceOnUse" x="0" y="0" width="24" height="25">
<rect y="0.258179" width="24" height="24" fill="#D9D9D9"/>
</mask>
<g mask="url(#mask0_677_39792)">
<path fill-rule="evenodd" clip-rule="evenodd" d="M20.64 12.4627C20.64 11.8246 20.5827 11.2109 20.4764 10.6218H12V14.1032H16.8436C16.635 15.2282 16.0009 16.1814 15.0477 16.8196V19.0777H17.9564C19.6582 17.5109 20.64 15.2036 20.64 12.4627Z" fill="#4285F4"/>
<path fill-rule="evenodd" clip-rule="evenodd" d="M11.9998 21.2581C14.4298 21.2581 16.467 20.4522 17.9561 19.0777L15.0475 16.8195C14.2416 17.3595 13.2107 17.6786 11.9998 17.6786C9.65567 17.6786 7.67158 16.0954 6.96385 13.9681H3.95703V16.3C5.43794 19.2413 8.48158 21.2581 11.9998 21.2581Z" fill="#34A853"/>
<path fill-rule="evenodd" clip-rule="evenodd" d="M6.96409 13.9681C6.78409 13.4281 6.68182 12.8513 6.68182 12.2581C6.68182 11.6649 6.78409 11.0881 6.96409 10.5481V8.21631H3.95727C3.34773 9.43131 3 10.8059 3 12.2581C3 13.7104 3.34773 15.0849 3.95727 16.2999L6.96409 13.9681Z" fill="#FBBC05"/>
<path fill-rule="evenodd" clip-rule="evenodd" d="M11.9998 6.83772C13.3211 6.83772 14.5075 7.29182 15.4402 8.18363L18.0216 5.60227C16.4629 4.15 14.4257 3.25818 11.9998 3.25818C8.48158 3.25818 5.43794 5.275 3.95703 8.21636L6.96385 10.5482C7.67158 8.42091 9.65567 6.83772 11.9998 6.83772Z" fill="#EA4335"/>
</g>
</svg>
