<svg width="56" height="101" viewBox="0 0 56 101" fill="none" xmlns="http://www.w3.org/2000/svg">
<mask id="mask0_655_39673" style="mask-type:alpha" maskUnits="userSpaceOnUse" x="16" y="16" width="25" height="25">
<rect x="16.0508" y="16.2582" width="24" height="24" fill="#D9D9D9"/>
</mask>
<g mask="url(#mask0_655_39673)">
<path d="M24.0508 32.2582C24.6008 32.2582 25.0718 32.0622 25.4638 31.6702C25.8551 31.2788 26.0508 30.8082 26.0508 30.2582C26.0508 29.7082 25.8551 29.2372 25.4638 28.8452C25.0718 28.4538 24.6008 28.2582 24.0508 28.2582C23.5008 28.2582 23.0301 28.4538 22.6388 28.8452C22.2468 29.2372 22.0508 29.7082 22.0508 30.2582C22.0508 30.8082 22.2468 31.2788 22.6388 31.6702C23.0301 32.0622 23.5008 32.2582 24.0508 32.2582ZM32.0508 32.2582C32.6008 32.2582 33.0718 32.0622 33.4638 31.6702C33.8551 31.2788 34.0508 30.8082 34.0508 30.2582C34.0508 29.7082 33.8551 29.2372 33.4638 28.8452C33.0718 28.4538 32.6008 28.2582 32.0508 28.2582C31.5008 28.2582 31.0301 28.4538 30.6388 28.8452C30.2468 29.2372 30.0508 29.7082 30.0508 30.2582C30.0508 30.8082 30.2468 31.2788 30.6388 31.6702C31.0301 32.0622 31.5008 32.2582 32.0508 32.2582ZM28.0508 26.2582C28.6008 26.2582 29.0718 26.0622 29.4638 25.6702C29.8551 25.2788 30.0508 24.8082 30.0508 24.2582C30.0508 23.7082 29.8551 23.2375 29.4638 22.8462C29.0718 22.4542 28.6008 22.2582 28.0508 22.2582C27.5008 22.2582 27.0301 22.4542 26.6388 22.8462C26.2468 23.2375 26.0508 23.7082 26.0508 24.2582C26.0508 24.8082 26.2468 25.2788 26.6388 25.6702C27.0301 26.0622 27.5008 26.2582 28.0508 26.2582ZM28.0508 38.2582C26.6674 38.2582 25.3674 37.9955 24.1508 37.4702C22.9341 36.9455 21.8758 36.2332 20.9758 35.3332C20.0758 34.4332 19.3634 33.3748 18.8388 32.1582C18.3134 30.9415 18.0508 29.6415 18.0508 28.2582C18.0508 26.8748 18.3134 25.5748 18.8388 24.3582C19.3634 23.1415 20.0758 22.0832 20.9758 21.1832C21.8758 20.2832 22.9341 19.5705 24.1508 19.0452C25.3674 18.5205 26.6674 18.2582 28.0508 18.2582C29.4341 18.2582 30.7341 18.5205 31.9508 19.0452C33.1674 19.5705 34.2258 20.2832 35.1258 21.1832C36.0258 22.0832 36.7381 23.1415 37.2628 24.3582C37.7881 25.5748 38.0508 26.8748 38.0508 28.2582C38.0508 29.6415 37.7881 30.9415 37.2628 32.1582C36.7381 33.3748 36.0258 34.4332 35.1258 35.3332C34.2258 36.2332 33.1674 36.9455 31.9508 37.4702C30.7341 37.9955 29.4341 38.2582 28.0508 38.2582ZM28.0508 36.2582C30.2841 36.2582 32.1758 35.4832 33.7258 33.9332C35.2758 32.3832 36.0508 30.4915 36.0508 28.2582C36.0508 26.0248 35.2758 24.1332 33.7258 22.5832C32.1758 21.0332 30.2841 20.2582 28.0508 20.2582C25.8174 20.2582 23.9258 21.0332 22.3758 22.5832C20.8258 24.1332 20.0508 26.0248 20.0508 28.2582C20.0508 30.4915 20.8258 32.3832 22.3758 33.9332C23.9258 35.4832 25.8174 36.2582 28.0508 36.2582Z" fill="white"/>
</g>
<mask id="mask1_655_39673" style="mask-type:alpha" maskUnits="userSpaceOnUse" x="16" y="60" width="24" height="25">
<rect x="16" y="60.2582" width="24" height="24" fill="#D9D9D9"/>
</mask>
<g mask="url(#mask1_655_39673)">
<path d="M24 76.2582C24.55 76.2582 25.021 76.0622 25.413 75.6702C25.8043 75.2788 26 74.8082 26 74.2582C26 73.7082 25.8043 73.2372 25.413 72.8452C25.021 72.4538 24.55 72.2582 24 72.2582C23.45 72.2582 22.9793 72.4538 22.588 72.8452C22.196 73.2372 22 73.7082 22 74.2582C22 74.8082 22.196 75.2788 22.588 75.6702C22.9793 76.0622 23.45 76.2582 24 76.2582ZM32 76.2582C32.55 76.2582 33.021 76.0622 33.413 75.6702C33.8043 75.2788 34 74.8082 34 74.2582C34 73.7082 33.8043 73.2372 33.413 72.8452C33.021 72.4538 32.55 72.2582 32 72.2582C31.45 72.2582 30.9793 72.4538 30.588 72.8452C30.196 73.2372 30 73.7082 30 74.2582C30 74.8082 30.196 75.2788 30.588 75.6702C30.9793 76.0622 31.45 76.2582 32 76.2582ZM28 70.2582C28.55 70.2582 29.021 70.0622 29.413 69.6702C29.8043 69.2788 30 68.8082 30 68.2582C30 67.7082 29.8043 67.2375 29.413 66.8462C29.021 66.4542 28.55 66.2582 28 66.2582C27.45 66.2582 26.9793 66.4542 26.588 66.8462C26.196 67.2375 26 67.7082 26 68.2582C26 68.8082 26.196 69.2788 26.588 69.6702C26.9793 70.0622 27.45 70.2582 28 70.2582ZM28 82.2582C26.6167 82.2582 25.3167 81.9955 24.1 81.4702C22.8833 80.9455 21.825 80.2332 20.925 79.3332C20.025 78.4332 19.3127 77.3748 18.788 76.1582C18.2627 74.9415 18 73.6415 18 72.2582C18 70.8748 18.2627 69.5748 18.788 68.3582C19.3127 67.1415 20.025 66.0832 20.925 65.1832C21.825 64.2832 22.8833 63.5705 24.1 63.0452C25.3167 62.5205 26.6167 62.2582 28 62.2582C29.3833 62.2582 30.6833 62.5205 31.9 63.0452C33.1167 63.5705 34.175 64.2832 35.075 65.1832C35.975 66.0832 36.6873 67.1415 37.212 68.3582C37.7373 69.5748 38 70.8748 38 72.2582C38 73.6415 37.7373 74.9415 37.212 76.1582C36.6873 77.3748 35.975 78.4332 35.075 79.3332C34.175 80.2332 33.1167 80.9455 31.9 81.4702C30.6833 81.9955 29.3833 82.2582 28 82.2582Z" fill="white"/>
</g>
<rect x="0.5" y="0.758179" width="55" height="99" rx="4.5" stroke="#9747FF" stroke-dasharray="10 5"/>
</svg>
