<svg width="56" height="100" viewBox="0 0 56 100" fill="none" xmlns="http://www.w3.org/2000/svg">
<mask id="mask0_604_39144" style="mask-type:alpha" maskUnits="userSpaceOnUse" x="16" y="16" width="24" height="24">
<rect x="16" y="16" width="24" height="24" fill="#D9D9D9"/>
</mask>
<g mask="url(#mask0_604_39144)">
<path d="M22 35H25V29H31V35H34V26L28 21.5L22 26V35ZM20 37V25L28 19L36 25V37H29V31H27V37H20Z" fill="black"/>
</g>
<mask id="mask1_604_39144" style="mask-type:alpha" maskUnits="userSpaceOnUse" x="16" y="60" width="24" height="24">
<rect x="16" y="60" width="24" height="24" fill="#D9D9D9"/>
</mask>
<g mask="url(#mask1_604_39144)">
<path d="M20 81V69L28 63L36 69V81H30V74H26V81H20Z" fill="black"/>
</g>
<rect x="0.5" y="0.5" width="55" height="99" rx="4.5" stroke="#9747FF" stroke-dasharray="10 5"/>
</svg>
