<svg width="56" height="100" viewBox="0 0 56 100" fill="none" xmlns="http://www.w3.org/2000/svg">
<mask id="mask0_605_39222" style="mask-type:alpha" maskUnits="userSpaceOnUse" x="16" y="16" width="24" height="24">
<rect x="16" y="16" width="24" height="24" fill="#D9D9D9"/>
</mask>
<g mask="url(#mask0_605_39222)">
<path d="M25.5 31.5L32.5 27L25.5 22.5V31.5ZM24 37V35H20C19.45 35 18.9792 34.8042 18.5875 34.4125C18.1958 34.0208 18 33.55 18 33V21C18 20.45 18.1958 19.9792 18.5875 19.5875C18.9792 19.1958 19.45 19 20 19H36C36.55 19 37.0208 19.1958 37.4125 19.5875C37.8042 19.9792 38 20.45 38 21V33C38 33.55 37.8042 34.0208 37.4125 34.4125C37.0208 34.8042 36.55 35 36 35H32V37H24ZM20 33H36V21H20V33Z" fill="#1C1B1F"/>
</g>
<mask id="mask1_605_39222" style="mask-type:alpha" maskUnits="userSpaceOnUse" x="16" y="60" width="24" height="24">
<rect x="16" y="60" width="24" height="24" fill="#D9D9D9"/>
</mask>
<g mask="url(#mask1_605_39222)">
<path d="M25.5 75.5L32.5 71L25.5 66.5V75.5ZM24 81V79H20C19.45 79 18.9792 78.8042 18.5875 78.4125C18.1958 78.0208 18 77.55 18 77V65C18 64.45 18.1958 63.9792 18.5875 63.5875C18.9792 63.1958 19.45 63 20 63H36C36.55 63 37.0208 63.1958 37.4125 63.5875C37.8042 63.9792 38 64.45 38 65V77C38 77.55 37.8042 78.0208 37.4125 78.4125C37.0208 78.8042 36.55 79 36 79H32V81H24Z" fill="#1C1B1F"/>
</g>
<rect x="0.5" y="0.5" width="55" height="99" rx="4.5" stroke="#9747FF" stroke-dasharray="10 5"/>
</svg>
