<svg width="56" height="100" viewBox="0 0 56 100" fill="none" xmlns="http://www.w3.org/2000/svg">
<mask id="mask0_605_39235" style="mask-type:alpha" maskUnits="userSpaceOnUse" x="16" y="16" width="24" height="24">
<rect x="16" y="16" width="24" height="24" fill="#D9D9D9"/>
</mask>
<g mask="url(#mask0_605_39235)">
<path d="M21 38C20.45 38 19.9792 37.8042 19.5875 37.4125C19.1958 37.0208 19 36.55 19 36V24C19 23.45 19.1958 22.9792 19.5875 22.5875C19.9792 22.1958 20.45 22 21 22H23C23 20.6167 23.4875 19.4375 24.4625 18.4625C25.4375 17.4875 26.6167 17 28 17C29.3833 17 30.5625 17.4875 31.5375 18.4625C32.5125 19.4375 33 20.6167 33 22H35C35.55 22 36.0208 22.1958 36.4125 22.5875C36.8042 22.9792 37 23.45 37 24V36C37 36.55 36.8042 37.0208 36.4125 37.4125C36.0208 37.8042 35.55 38 35 38H21ZM21 36H35V24H21V36ZM28 30C29.3833 30 30.5625 29.5125 31.5375 28.5375C32.5125 27.5625 33 26.3833 33 25H31C31 25.8333 30.7083 26.5417 30.125 27.125C29.5417 27.7083 28.8333 28 28 28C27.1667 28 26.4583 27.7083 25.875 27.125C25.2917 26.5417 25 25.8333 25 25H23C23 26.3833 23.4875 27.5625 24.4625 28.5375C25.4375 29.5125 26.6167 30 28 30ZM25 22H31C31 21.1667 30.7083 20.4583 30.125 19.875C29.5417 19.2917 28.8333 19 28 19C27.1667 19 26.4583 19.2917 25.875 19.875C25.2917 20.4583 25 21.1667 25 22Z" fill="#1C1B1F"/>
</g>
<mask id="mask1_605_39235" style="mask-type:alpha" maskUnits="userSpaceOnUse" x="16" y="60" width="24" height="24">
<rect x="16" y="60" width="24" height="24" fill="#D9D9D9"/>
</mask>
<g mask="url(#mask1_605_39235)">
<path d="M21 82C20.45 82 19.9792 81.8042 19.5875 81.4125C19.1958 81.0208 19 80.55 19 80V68C19 67.45 19.1958 66.9792 19.5875 66.5875C19.9792 66.1958 20.45 66 21 66H23C23 64.6167 23.4875 63.4375 24.4625 62.4625C25.4375 61.4875 26.6167 61 28 61C29.3833 61 30.5625 61.4875 31.5375 62.4625C32.5125 63.4375 33 64.6167 33 66H35C35.55 66 36.0208 66.1958 36.4125 66.5875C36.8042 66.9792 37 67.45 37 68V80C37 80.55 36.8042 81.0208 36.4125 81.4125C36.0208 81.8042 35.55 82 35 82H21ZM28 74C29.3833 74 30.5625 73.5125 31.5375 72.5375C32.5125 71.5625 33 70.3833 33 69H31C31 69.8333 30.7083 70.5417 30.125 71.125C29.5417 71.7083 28.8333 72 28 72C27.1667 72 26.4583 71.7083 25.875 71.125C25.2917 70.5417 25 69.8333 25 69H23C23 70.3833 23.4875 71.5625 24.4625 72.5375C25.4375 73.5125 26.6167 74 28 74ZM25 66H31C31 65.1667 30.7083 64.4583 30.125 63.875C29.5417 63.2917 28.8333 63 28 63C27.1667 63 26.4583 63.2917 25.875 63.875C25.2917 64.4583 25 65.1667 25 66Z" fill="#1C1B1F"/>
</g>
<rect x="0.5" y="0.5" width="55" height="99" rx="4.5" stroke="#9747FF" stroke-dasharray="10 5"/>
</svg>
