<svg width="56" height="100" viewBox="0 0 56 100" fill="none" xmlns="http://www.w3.org/2000/svg">
<mask id="mask0_684_40723" style="mask-type:alpha" maskUnits="userSpaceOnUse" x="16" y="16" width="24" height="24">
<rect x="16" y="16" width="24" height="24" fill="#D9D9D9"/>
</mask>
<g mask="url(#mask0_684_40723)">
<path d="M22 38C21.45 38 20.9792 37.8042 20.5875 37.4125C20.1958 37.0208 20 36.55 20 36V26C20 25.45 20.1958 24.9792 20.5875 24.5875C20.9792 24.1958 21.45 24 22 24H23V22C23 20.6167 23.4875 19.4375 24.4625 18.4625C25.4375 17.4875 26.6167 17 28 17C29.3833 17 30.5625 17.4875 31.5375 18.4625C32.5125 19.4375 33 20.6167 33 22V24H34C34.55 24 35.0208 24.1958 35.4125 24.5875C35.8042 24.9792 36 25.45 36 26V36C36 36.55 35.8042 37.0208 35.4125 37.4125C35.0208 37.8042 34.55 38 34 38H22ZM22 36H34V26H22V36ZM28 33C28.55 33 29.0208 32.8042 29.4125 32.4125C29.8042 32.0208 30 31.55 30 31C30 30.45 29.8042 29.9792 29.4125 29.5875C29.0208 29.1958 28.55 29 28 29C27.45 29 26.9792 29.1958 26.5875 29.5875C26.1958 29.9792 26 30.45 26 31C26 31.55 26.1958 32.0208 26.5875 32.4125C26.9792 32.8042 27.45 33 28 33ZM25 24H31V22C31 21.1667 30.7083 20.4583 30.125 19.875C29.5417 19.2917 28.8333 19 28 19C27.1667 19 26.4583 19.2917 25.875 19.875C25.2917 20.4583 25 21.1667 25 22V24Z" fill="#1C1B1F"/>
</g>
<mask id="mask1_684_40723" style="mask-type:alpha" maskUnits="userSpaceOnUse" x="16" y="60" width="24" height="24">
<rect x="16" y="60" width="24" height="24" fill="#D9D9D9"/>
</mask>
<g mask="url(#mask1_684_40723)">
<path d="M22 82C21.45 82 20.9792 81.8042 20.5875 81.4125C20.1958 81.0208 20 80.55 20 80V70C20 69.45 20.1958 68.9792 20.5875 68.5875C20.9792 68.1958 21.45 68 22 68H23V66C23 64.6167 23.4875 63.4375 24.4625 62.4625C25.4375 61.4875 26.6167 61 28 61C29.3833 61 30.5625 61.4875 31.5375 62.4625C32.5125 63.4375 33 64.6167 33 66V68H34C34.55 68 35.0208 68.1958 35.4125 68.5875C35.8042 68.9792 36 69.45 36 70V80C36 80.55 35.8042 81.0208 35.4125 81.4125C35.0208 81.8042 34.55 82 34 82H22ZM28 77C28.55 77 29.0208 76.8042 29.4125 76.4125C29.8042 76.0208 30 75.55 30 75C30 74.45 29.8042 73.9792 29.4125 73.5875C29.0208 73.1958 28.55 73 28 73C27.45 73 26.9792 73.1958 26.5875 73.5875C26.1958 73.9792 26 74.45 26 75C26 75.55 26.1958 76.0208 26.5875 76.4125C26.9792 76.8042 27.45 77 28 77ZM25 68H31V66C31 65.1667 30.7083 64.4583 30.125 63.875C29.5417 63.2917 28.8333 63 28 63C27.1667 63 26.4583 63.2917 25.875 63.875C25.2917 64.4583 25 65.1667 25 66V68Z" fill="#1C1B1F"/>
</g>
<rect x="0.5" y="0.5" width="55" height="99" rx="4.5" stroke="#9747FF" stroke-dasharray="10 5"/>
</svg>
