<svg width="56" height="100" viewBox="0 0 56 100" fill="none" xmlns="http://www.w3.org/2000/svg">
<mask id="mask0_663_39814" style="mask-type:alpha" maskUnits="userSpaceOnUse" x="16" y="16" width="24" height="24">
<rect x="16" y="16" width="24" height="24" fill="#D9D9D9"/>
</mask>
<g mask="url(#mask0_663_39814)">
<path d="M27 33H29V29H33V27H29V23H27V27H23V29H27V33ZM28 38C26.6167 38 25.3167 37.7373 24.1 37.212C22.8833 36.6873 21.825 35.975 20.925 35.075C20.025 34.175 19.3127 33.1167 18.788 31.9C18.2627 30.6833 18 29.3833 18 28C18 26.6167 18.2627 25.3167 18.788 24.1C19.3127 22.8833 20.025 21.825 20.925 20.925C21.825 20.025 22.8833 19.3123 24.1 18.787C25.3167 18.2623 26.6167 18 28 18C29.3833 18 30.6833 18.2623 31.9 18.787C33.1167 19.3123 34.175 20.025 35.075 20.925C35.975 21.825 36.6873 22.8833 37.212 24.1C37.7373 25.3167 38 26.6167 38 28V36C38 36.55 37.8043 37.021 37.413 37.413C37.021 37.8043 36.55 38 36 38H28ZM28 36C30.2333 36 32.125 35.225 33.675 33.675C35.225 32.125 36 30.2333 36 28C36 25.7667 35.225 23.875 33.675 22.325C32.125 20.775 30.2333 20 28 20C25.7667 20 23.875 20.775 22.325 22.325C20.775 23.875 20 25.7667 20 28C20 30.2333 20.775 32.125 22.325 33.675C23.875 35.225 25.7667 36 28 36Z" fill="#1C1B1F"/>
</g>
<mask id="mask1_663_39814" style="mask-type:alpha" maskUnits="userSpaceOnUse" x="16" y="60" width="24" height="24">
<rect x="16" y="60" width="24" height="24" fill="#D9D9D9"/>
</mask>
<g mask="url(#mask1_663_39814)">
<path d="M27 77H29V73H33V71H29V67H27V71H23V73H27V77ZM28 82C26.6167 82 25.3167 81.7373 24.1 81.212C22.8833 80.6873 21.825 79.975 20.925 79.075C20.025 78.175 19.3127 77.1167 18.788 75.9C18.2627 74.6833 18 73.3833 18 72C18 70.6167 18.2627 69.3167 18.788 68.1C19.3127 66.8833 20.025 65.825 20.925 64.925C21.825 64.025 22.8833 63.3123 24.1 62.787C25.3167 62.2623 26.6167 62 28 62C29.3833 62 30.6833 62.2623 31.9 62.787C33.1167 63.3123 34.175 64.025 35.075 64.925C35.975 65.825 36.6873 66.8833 37.212 68.1C37.7373 69.3167 38 70.6167 38 72V80C38 80.55 37.8043 81.021 37.413 81.413C37.021 81.8043 36.55 82 36 82H28Z" fill="#1C1B1F"/>
</g>
<rect x="0.5" y="0.5" width="55" height="99" rx="4.5" stroke="#9747FF" stroke-dasharray="10 5"/>
</svg>
