<svg width="56" height="100" viewBox="0 0 56 100" fill="none" xmlns="http://www.w3.org/2000/svg">
<mask id="mask0_677_39845" style="mask-type:alpha" maskUnits="userSpaceOnUse" x="16" y="16" width="24" height="24">
<rect x="16" y="16" width="24" height="24" fill="#D9D9D9"/>
</mask>
<g mask="url(#mask0_677_39845)">
<path d="M20 36C19.45 36 18.9792 35.8042 18.5875 35.4125C18.1958 35.0208 18 34.55 18 34V22C18 21.45 18.1958 20.9792 18.5875 20.5875C18.9792 20.1958 19.45 20 20 20H36C36.55 20 37.0208 20.1958 37.4125 20.5875C37.8042 20.9792 38 21.45 38 22V34C38 34.55 37.8042 35.0208 37.4125 35.4125C37.0208 35.8042 36.55 36 36 36H20ZM28 29L20 24V34H36V24L28 29ZM28 27L36 22H20L28 27ZM20 24V22V34V24Z" fill="white"/>
</g>
<mask id="mask1_677_39845" style="mask-type:alpha" maskUnits="userSpaceOnUse" x="16" y="60" width="24" height="24">
<rect x="16" y="60" width="24" height="24" fill="#D9D9D9"/>
</mask>
<g mask="url(#mask1_677_39845)">
<path d="M20 80C19.45 80 18.9792 79.8042 18.5875 79.4125C18.1958 79.0208 18 78.55 18 78V66C18 65.45 18.1958 64.9792 18.5875 64.5875C18.9792 64.1958 19.45 64 20 64H36C36.55 64 37.0208 64.1958 37.4125 64.5875C37.8042 64.9792 38 65.45 38 66V78C38 78.55 37.8042 79.0208 37.4125 79.4125C37.0208 79.8042 36.55 80 36 80H20ZM28 73L36 68V66L28 71L20 66V68L28 73Z" fill="white"/>
</g>
<rect x="0.5" y="0.5" width="55" height="99" rx="4.5" stroke="#9747FF" stroke-dasharray="10 5"/>
</svg>
