<svg width="56" height="100" viewBox="0 0 56 100" fill="none" xmlns="http://www.w3.org/2000/svg">
<mask id="mask0_605_39260" style="mask-type:alpha" maskUnits="userSpaceOnUse" x="16" y="16" width="24" height="24">
<rect x="16" y="16" width="24" height="24" fill="#D9D9D9"/>
</mask>
<g mask="url(#mask0_605_39260)">
<path d="M25 31V29.5C25 28.6667 25.2917 27.9583 25.875 27.375C26.4583 26.7917 27.1667 26.5 28 26.5H29V24.5L32 27.5L29 30.5V28.5H28C27.7167 28.5 27.4792 28.5958 27.2875 28.7875C27.0958 28.9792 27 29.2167 27 29.5V31H25ZM23 39C22.45 39 21.9792 38.8042 21.5875 38.4125C21.1958 38.0208 21 37.55 21 37V19C21 18.45 21.1958 17.9792 21.5875 17.5875C21.9792 17.1958 22.45 17 23 17H33C33.55 17 34.0208 17.1958 34.4125 17.5875C34.8042 17.9792 35 18.45 35 19V37C35 37.55 34.8042 38.0208 34.4125 38.4125C34.0208 38.8042 33.55 39 33 39H23ZM23 36V37H33V36H23ZM23 34H33V22H23V34ZM23 20H33V19H23V20Z" fill="#1C1B1F"/>
</g>
<mask id="mask1_605_39260" style="mask-type:alpha" maskUnits="userSpaceOnUse" x="16" y="60" width="24" height="24">
<rect x="16" y="60" width="24" height="24" fill="#D9D9D9"/>
</mask>
<g mask="url(#mask1_605_39260)">
<path d="M25 75V73.5C25 72.6667 25.2917 71.9583 25.875 71.375C26.4583 70.7917 27.1667 70.5 28 70.5H29V68.5L32 71.5L29 74.5V72.5H28C27.7167 72.5 27.4792 72.5958 27.2875 72.7875C27.0958 72.9792 27 73.2167 27 73.5V75H25ZM23 83C22.45 83 21.9792 82.8042 21.5875 82.4125C21.1958 82.0208 21 81.55 21 81V63C21 62.45 21.1958 61.9792 21.5875 61.5875C21.9792 61.1958 22.45 61 23 61H33C33.55 61 34.0208 61.1958 34.4125 61.5875C34.8042 61.9792 35 62.45 35 63V81C35 81.55 34.8042 82.0208 34.4125 82.4125C34.0208 82.8042 33.55 83 33 83H23ZM23 78H33V66H23V78Z" fill="#1C1B1F"/>
</g>
<rect x="0.5" y="0.5" width="55" height="99" rx="4.5" stroke="#9747FF" stroke-dasharray="10 5"/>
</svg>
