<svg width="56" height="101" viewBox="0 0 56 101" fill="none" xmlns="http://www.w3.org/2000/svg">
<mask id="mask0_655_39754" style="mask-type:alpha" maskUnits="userSpaceOnUse" x="16" y="16" width="24" height="24">
<rect x="16" y="16" width="24" height="24" fill="#D9D9D9"/>
</mask>
<g mask="url(#mask0_655_39754)">
<path d="M22 30C21.45 30 20.9793 29.804 20.588 29.412C20.196 29.0207 20 28.55 20 28C20 27.45 20.196 26.979 20.588 26.587C20.9793 26.1957 21.45 26 22 26C22.55 26 23.0207 26.1957 23.412 26.587C23.804 26.979 24 27.45 24 28C24 28.55 23.804 29.0207 23.412 29.412C23.0207 29.804 22.55 30 22 30ZM28 30C27.45 30 26.9793 29.804 26.588 29.412C26.196 29.0207 26 28.55 26 28C26 27.45 26.196 26.979 26.588 26.587C26.9793 26.1957 27.45 26 28 26C28.55 26 29.021 26.1957 29.413 26.587C29.8043 26.979 30 27.45 30 28C30 28.55 29.8043 29.0207 29.413 29.412C29.021 29.804 28.55 30 28 30ZM34 30C33.45 30 32.979 29.804 32.587 29.412C32.1957 29.0207 32 28.55 32 28C32 27.45 32.1957 26.979 32.587 26.587C32.979 26.1957 33.45 26 34 26C34.55 26 35.021 26.1957 35.413 26.587C35.8043 26.979 36 27.45 36 28C36 28.55 35.8043 29.0207 35.413 29.412C35.021 29.804 34.55 30 34 30Z" fill="white"/>
</g>
<mask id="mask1_655_39754" style="mask-type:alpha" maskUnits="userSpaceOnUse" x="16" y="60" width="25" height="25">
<rect x="16.2148" y="60.2582" width="24" height="24" fill="#D9D9D9"/>
</mask>
<g mask="url(#mask1_655_39754)">
<path d="M22.2148 74.2582C21.6648 74.2582 21.1942 74.0622 20.8028 73.6702C20.4108 73.2788 20.2148 72.8082 20.2148 72.2582C20.2148 71.7082 20.4108 71.2372 20.8028 70.8452C21.1942 70.4538 21.6648 70.2582 22.2148 70.2582C22.7648 70.2582 23.2355 70.4538 23.6268 70.8452C24.0188 71.2372 24.2148 71.7082 24.2148 72.2582C24.2148 72.8082 24.0188 73.2788 23.6268 73.6702C23.2355 74.0622 22.7648 74.2582 22.2148 74.2582ZM28.2148 74.2582C27.6648 74.2582 27.1942 74.0622 26.8028 73.6702C26.4108 73.2788 26.2148 72.8082 26.2148 72.2582C26.2148 71.7082 26.4108 71.2372 26.8028 70.8452C27.1942 70.4538 27.6648 70.2582 28.2148 70.2582C28.7648 70.2582 29.2358 70.4538 29.6278 70.8452C30.0192 71.2372 30.2148 71.7082 30.2148 72.2582C30.2148 72.8082 30.0192 73.2788 29.6278 73.6702C29.2358 74.0622 28.7648 74.2582 28.2148 74.2582ZM34.2148 74.2582C33.6648 74.2582 33.1938 74.0622 32.8018 73.6702C32.4105 73.2788 32.2148 72.8082 32.2148 72.2582C32.2148 71.7082 32.4105 71.2372 32.8018 70.8452C33.1938 70.4538 33.6648 70.2582 34.2148 70.2582C34.7648 70.2582 35.2358 70.4538 35.6278 70.8452C36.0192 71.2372 36.2148 71.7082 36.2148 72.2582C36.2148 72.8082 36.0192 73.2788 35.6278 73.6702C35.2358 74.0622 34.7648 74.2582 34.2148 74.2582Z" fill="white"/>
</g>
<rect x="0.5" y="0.5" width="55" height="99.2582" rx="4.5" stroke="#9747FF" stroke-dasharray="10 5"/>
</svg>
