<svg width="56" height="100" viewBox="0 0 56 100" fill="none" xmlns="http://www.w3.org/2000/svg">
<mask id="mask0_655_39735" style="mask-type:alpha" maskUnits="userSpaceOnUse" x="16" y="16" width="24" height="24">
<rect x="16" y="16" width="24" height="24" fill="#D9D9D9"/>
</mask>
<g mask="url(#mask0_655_39735)">
<path d="M28 36C27.45 36 26.9793 35.8043 26.588 35.413C26.196 35.021 26 34.55 26 34C26 33.45 26.196 32.979 26.588 32.587C26.9793 32.1957 27.45 32 28 32C28.55 32 29.021 32.1957 29.413 32.587C29.8043 32.979 30 33.45 30 34C30 34.55 29.8043 35.021 29.413 35.413C29.021 35.8043 28.55 36 28 36ZM28 30C27.45 30 26.9793 29.804 26.588 29.412C26.196 29.0207 26 28.55 26 28C26 27.45 26.196 26.979 26.588 26.587C26.9793 26.1957 27.45 26 28 26C28.55 26 29.021 26.1957 29.413 26.587C29.8043 26.979 30 27.45 30 28C30 28.55 29.8043 29.0207 29.413 29.412C29.021 29.804 28.55 30 28 30ZM28 24C27.45 24 26.9793 23.804 26.588 23.412C26.196 23.0207 26 22.55 26 22C26 21.45 26.196 20.9793 26.588 20.588C26.9793 20.196 27.45 20 28 20C28.55 20 29.021 20.196 29.413 20.588C29.8043 20.9793 30 21.45 30 22C30 22.55 29.8043 23.0207 29.413 23.412C29.021 23.804 28.55 24 28 24Z" fill="white"/>
</g>
<mask id="mask1_655_39735" style="mask-type:alpha" maskUnits="userSpaceOnUse" x="16" y="60" width="25" height="24">
<rect x="16.2148" y="60" width="24" height="24" fill="#D9D9D9"/>
</mask>
<g mask="url(#mask1_655_39735)">
<path d="M28.2148 80C27.6648 80 27.1942 79.8043 26.8028 79.413C26.4108 79.021 26.2148 78.55 26.2148 78C26.2148 77.45 26.4108 76.979 26.8028 76.587C27.1942 76.1957 27.6648 76 28.2148 76C28.7648 76 29.2358 76.1957 29.6278 76.587C30.0192 76.979 30.2148 77.45 30.2148 78C30.2148 78.55 30.0192 79.021 29.6278 79.413C29.2358 79.8043 28.7648 80 28.2148 80ZM28.2148 74C27.6648 74 27.1942 73.804 26.8028 73.412C26.4108 73.0207 26.2148 72.55 26.2148 72C26.2148 71.45 26.4108 70.979 26.8028 70.587C27.1942 70.1957 27.6648 70 28.2148 70C28.7648 70 29.2358 70.1957 29.6278 70.587C30.0192 70.979 30.2148 71.45 30.2148 72C30.2148 72.55 30.0192 73.0207 29.6278 73.412C29.2358 73.804 28.7648 74 28.2148 74ZM28.2148 68C27.6648 68 27.1942 67.804 26.8028 67.412C26.4108 67.0207 26.2148 66.55 26.2148 66C26.2148 65.45 26.4108 64.9793 26.8028 64.588C27.1942 64.196 27.6648 64 28.2148 64C28.7648 64 29.2358 64.196 29.6278 64.588C30.0192 64.9793 30.2148 65.45 30.2148 66C30.2148 66.55 30.0192 67.0207 29.6278 67.412C29.2358 67.804 28.7648 68 28.2148 68Z" fill="white"/>
</g>
<rect x="0.5" y="0.5" width="55" height="99" rx="4.5" stroke="#9747FF" stroke-dasharray="10 5"/>
</svg>
