<svg width="56" height="101" viewBox="0 0 56 101" fill="none" xmlns="http://www.w3.org/2000/svg">
<mask id="mask0_651_39736" style="mask-type:alpha" maskUnits="userSpaceOnUse" x="16" y="16" width="25" height="25">
<rect x="16.3633" y="16.2582" width="24" height="24" fill="#D9D9D9"/>
</mask>
<g mask="url(#mask0_651_39736)">
<path d="M26.3633 37.2582C25.2633 37.2582 24.3216 36.8665 23.5383 36.0832C22.7549 35.2998 22.3633 34.3582 22.3633 33.2582C22.3633 32.1582 22.7549 31.2165 23.5383 30.4332C24.3216 29.6498 25.2633 29.2582 26.3633 29.2582C26.7466 29.2582 27.1006 29.3038 27.4253 29.3952C27.7506 29.4872 28.0633 29.6248 28.3633 29.8082V19.2582H34.3633V23.2582H30.3633V33.2582C30.3633 34.3582 29.9716 35.2998 29.1883 36.0832C28.4049 36.8665 27.4633 37.2582 26.3633 37.2582Z" fill="white"/>
</g>
<mask id="mask1_651_39736" style="mask-type:alpha" maskUnits="userSpaceOnUse" x="16" y="60" width="24" height="25">
<rect x="16" y="60.2582" width="24" height="24" fill="#D9D9D9"/>
</mask>
<g mask="url(#mask1_651_39736)">
<path d="M26 81.2582C24.9 81.2582 23.9583 80.8665 23.175 80.0832C22.3917 79.2998 22 78.3582 22 77.2582C22 76.1582 22.3917 75.2165 23.175 74.4332C23.9583 73.6498 24.9 73.2582 26 73.2582C26.3833 73.2582 26.7373 73.3038 27.062 73.3952C27.3873 73.4872 27.7 73.6248 28 73.8082V63.2582H34V67.2582H30V77.2582C30 78.3582 29.6083 79.2998 28.825 80.0832C28.0417 80.8665 27.1 81.2582 26 81.2582Z" fill="white"/>
</g>
<rect x="0.5" y="0.758179" width="55" height="99" rx="4.5" stroke="#9747FF" stroke-dasharray="10 5"/>
</svg>
