<svg width="56" height="100" viewBox="0 0 56 100" fill="none" xmlns="http://www.w3.org/2000/svg">
<mask id="mask0_614_39666" style="mask-type:alpha" maskUnits="userSpaceOnUse" x="16" y="16" width="24" height="24">
<rect x="16" y="16" width="24" height="24" fill="#D9D9D9"/>
</mask>
<g mask="url(#mask0_614_39666)">
<path d="M20 35V33H22V26C22 24.6167 22.4167 23.3875 23.25 22.3125C24.0833 21.2375 25.1667 20.5333 26.5 20.2V19.5C26.5 19.0833 26.6458 18.7292 26.9375 18.4375C27.2292 18.1458 27.5833 18 28 18C28.4167 18 28.7708 18.1458 29.0625 18.4375C29.3542 18.7292 29.5 19.0833 29.5 19.5V20.2C30.8333 20.5333 31.9167 21.2375 32.75 22.3125C33.5833 23.3875 34 24.6167 34 26V33H36V35H20ZM28 38C27.45 38 26.9792 37.8042 26.5875 37.4125C26.1958 37.0208 26 36.55 26 36H30C30 36.55 29.8042 37.0208 29.4125 37.4125C29.0208 37.8042 28.55 38 28 38ZM24 33H32V26C32 24.9 31.6083 23.9583 30.825 23.175C30.0417 22.3917 29.1 22 28 22C26.9 22 25.9583 22.3917 25.175 23.175C24.3917 23.9583 24 24.9 24 26V33Z" fill="#1C1B1F"/>
</g>
<mask id="mask1_614_39666" style="mask-type:alpha" maskUnits="userSpaceOnUse" x="16" y="60" width="24" height="24">
<rect x="16" y="60" width="24" height="24" fill="#D9D9D9"/>
</mask>
<g mask="url(#mask1_614_39666)">
<path d="M20 79V77H22V70C22 68.6167 22.4167 67.3875 23.25 66.3125C24.0833 65.2375 25.1667 64.5333 26.5 64.2V63.5C26.5 63.0833 26.6458 62.7292 26.9375 62.4375C27.2292 62.1458 27.5833 62 28 62C28.4167 62 28.7708 62.1458 29.0625 62.4375C29.3542 62.7292 29.5 63.0833 29.5 63.5V64.2C30.8333 64.5333 31.9167 65.2375 32.75 66.3125C33.5833 67.3875 34 68.6167 34 70V77H36V79H20ZM28 82C27.45 82 26.9792 81.8042 26.5875 81.4125C26.1958 81.0208 26 80.55 26 80H30C30 80.55 29.8042 81.0208 29.4125 81.4125C29.0208 81.8042 28.55 82 28 82Z" fill="#1C1B1F"/>
</g>
<rect x="0.5" y="0.5" width="55" height="99" rx="4.5" stroke="#9747FF" stroke-dasharray="10 5"/>
</svg>
