<svg width="24" height="24" viewBox="0 0 24 24" fill="none" xmlns="http://www.w3.org/2000/svg">
<path d="M21.4889 22.2474H2.54386C1.13804 22.2474 0 21.1824 0 19.8669V7.99573C0 6.68019 1.13804 5.61523 2.54386 5.61523H21.4554C22.8612 5.61523 23.9993 6.68019 23.9993 7.99573V19.8669C24.0328 21.1824 22.8947 22.2474 21.4889 22.2474ZM2.54386 7.30664C2.14219 7.30664 1.80748 7.61986 1.80748 7.99573V19.8669C1.80748 20.2428 2.14219 20.556 2.54386 20.556H21.4554C21.8571 20.556 22.1918 20.2428 22.1918 19.8669V7.99573C22.1918 7.61986 21.8571 7.30664 21.4554 7.30664H2.54386Z" fill="#1DBDC2"/>
<path d="M4.31836 24.0002C4.08405 24.0002 3.84975 23.9062 3.68239 23.7496C3.3142 23.405 3.3142 22.8726 3.68239 22.5593L5.55681 20.8053C5.925 20.4607 6.49402 20.4607 6.82874 20.8053C7.19693 21.1498 7.19693 21.6823 6.82874 21.9955L4.95432 23.7496C4.78696 23.9062 4.55266 24.0002 4.31836 24.0002Z" fill="#1DBDC2"/>
<path d="M19.7162 24.0002C19.4819 24.0002 19.2476 23.9062 19.0802 23.7496L17.2058 21.9955C16.8376 21.651 16.8376 21.1185 17.2058 20.8053C17.574 20.4607 18.143 20.4607 18.4778 20.8053L20.3522 22.5593C20.7204 22.9039 20.7204 23.4364 20.3522 23.7496C20.1848 23.9062 19.9505 24.0002 19.7162 24.0002Z" fill="#1DBDC2"/>
<path d="M12.248 6.55419C12.0137 6.55419 11.7794 6.46023 11.6121 6.30362C11.2439 5.95907 11.2439 5.42659 11.6121 5.11337L16.8002 0.258409C17.1684 -0.0861364 17.7374 -0.0861364 18.0721 0.258409C18.4069 0.602955 18.4403 1.13543 18.0721 1.44866L12.884 6.30362C12.7166 6.49155 12.4823 6.55419 12.248 6.55419Z" fill="#1DBDC2"/>
<path d="M11.3451 6.55496C11.1108 6.55496 10.8765 6.46099 10.7092 6.30438L8.83474 4.55033C8.46655 4.20579 8.46655 3.67331 8.83474 3.36008C9.20293 3.04686 9.77195 3.01554 10.1067 3.36008L11.9811 5.11413C12.3493 5.45868 12.3493 5.99116 11.9811 6.30438C11.7803 6.49232 11.546 6.55496 11.3451 6.55496Z" fill="#1DBDC2"/>
<path d="M14.8596 19.583H9.16936C8.66729 19.583 8.26562 19.2071 8.26562 18.7373C8.26562 18.2675 8.66729 17.8916 9.16936 17.8916H14.8596C15.3616 17.8916 15.7633 18.2675 15.7633 18.7373C15.7633 19.2071 15.3616 19.583 14.8596 19.583Z" fill="#1DBDC2"/>
<path d="M4.3178 19.5839C4.0835 19.5839 3.8492 19.49 3.68184 19.3334C3.51448 19.1768 3.41406 18.9575 3.41406 18.7382C3.41406 18.519 3.51448 18.2997 3.68184 18.1431C4.01656 17.8299 4.61905 17.8299 4.95377 18.1431C5.12112 18.2997 5.22154 18.519 5.22154 18.7382C5.22154 18.9575 5.12112 19.1768 4.95377 19.3334C4.78641 19.49 4.5521 19.5839 4.3178 19.5839Z" fill="#1DBDC2"/>
</svg>
