<svg width="56" height="100" viewBox="0 0 56 100" fill="none" xmlns="http://www.w3.org/2000/svg">
<mask id="mask0_663_39787" style="mask-type:alpha" maskUnits="userSpaceOnUse" x="16" y="16" width="24" height="24">
<rect x="16" y="16" width="24" height="24" fill="#D9D9D9"/>
</mask>
<g mask="url(#mask0_663_39787)">
<path d="M18 23V18H23V20H20V23H18ZM18 38V33H20V36H23V38H18ZM33 38V36H36V33H38V38H33ZM36 23V20H33V18H38V23H36ZM33.5 33.5H35V35H33.5V33.5ZM33.5 30.5H35V32H33.5V30.5ZM32 32H33.5V33.5H32V32ZM30.5 33.5H32V35H30.5V33.5ZM29 32H30.5V33.5H29V32ZM32 29H33.5V30.5H32V29ZM30.5 30.5H32V32H30.5V30.5ZM29 29H30.5V30.5H29V29ZM35 21V27H29V21H35ZM27 29V35H21V29H27ZM27 21V27H21V21H27ZM25.5 33.5V30.5H22.5V33.5H25.5ZM25.5 25.5V22.5H22.5V25.5H25.5ZM33.5 25.5V22.5H30.5V25.5H33.5Z" fill="#1C1B1F"/>
</g>
<mask id="mask1_663_39787" style="mask-type:alpha" maskUnits="userSpaceOnUse" x="16" y="60" width="25" height="24">
<rect x="16.0391" y="60" width="24" height="24" fill="#D9D9D9"/>
</mask>
<g mask="url(#mask1_663_39787)">
<path d="M18.0391 67V62H23.0391V64H20.0391V67H18.0391ZM18.0391 82V77H20.0391V80H23.0391V82H18.0391ZM33.0391 82V80H36.0391V77H38.0391V82H33.0391ZM36.0391 67V64H33.0391V62H38.0391V67H36.0391ZM33.5391 77.5H35.0391V79H33.5391V77.5ZM33.5391 74.5H35.0391V76H33.5391V74.5ZM32.0391 76H33.5391V77.5H32.0391V76ZM30.5391 77.5H32.0391V79H30.5391V77.5ZM29.0391 76H30.5391V77.5H29.0391V76ZM32.0391 73H33.5391V74.5H32.0391V73ZM30.5391 74.5H32.0391V76H30.5391V74.5ZM29.0391 73H30.5391V74.5H29.0391V73ZM35.0391 65V71H29.0391V65H35.0391ZM27.0391 73V79H21.0391V73H27.0391ZM27.0391 65V71H21.0391V65H27.0391ZM25.5391 77.5V74.5H22.5391V77.5H25.5391ZM25.5391 69.5V66.5H22.5391V69.5H25.5391ZM33.5391 69.5V66.5H30.5391V69.5H33.5391Z" fill="#1C1B1F"/>
</g>
<rect x="0.5" y="0.5" width="55" height="99" rx="4.5" stroke="#9747FF" stroke-dasharray="10 5"/>
</svg>
