<svg width="56" height="100" viewBox="0 0 56 100" fill="none" xmlns="http://www.w3.org/2000/svg">
<mask id="mask0_605_39238" style="mask-type:alpha" maskUnits="userSpaceOnUse" x="16" y="16" width="24" height="24">
<rect x="16" y="16" width="24" height="24" fill="#D9D9D9"/>
</mask>
<g mask="url(#mask0_605_39238)">
<path d="M24 30H26V28C26 27.7167 26.0958 27.4792 26.2875 27.2875C26.4792 27.0958 26.7167 27 27 27H29V29L32 26L29 23V25H27C26.1667 25 25.4583 25.2917 24.875 25.875C24.2917 26.4583 24 27.1667 24 28V30ZM18 37C17.7167 37 17.4792 36.9042 17.2875 36.7125C17.0958 36.5208 17 36.2833 17 36C17 35.7167 17.0958 35.4792 17.2875 35.2875C17.4792 35.0958 17.7167 35 18 35H38C38.2833 35 38.5208 35.0958 38.7125 35.2875C38.9042 35.4792 39 35.7167 39 36C39 36.2833 38.9042 36.5208 38.7125 36.7125C38.5208 36.9042 38.2833 37 38 37H18ZM20 34C19.45 34 18.9792 33.8042 18.5875 33.4125C18.1958 33.0208 18 32.55 18 32V21C18 20.45 18.1958 19.9792 18.5875 19.5875C18.9792 19.1958 19.45 19 20 19H36C36.55 19 37.0208 19.1958 37.4125 19.5875C37.8042 19.9792 38 20.45 38 21V32C38 32.55 37.8042 33.0208 37.4125 33.4125C37.0208 33.8042 36.55 34 36 34H20ZM20 32H36V21H20V32Z" fill="#1C1B1F"/>
</g>
<mask id="mask1_605_39238" style="mask-type:alpha" maskUnits="userSpaceOnUse" x="16" y="60" width="24" height="24">
<rect x="16" y="60" width="24" height="24" fill="#D9D9D9"/>
</mask>
<g mask="url(#mask1_605_39238)">
<path d="M24 74H26V72C26 71.7167 26.0958 71.4792 26.2875 71.2875C26.4792 71.0958 26.7167 71 27 71H29V73L32 70L29 67V69H27C26.1667 69 25.4583 69.2917 24.875 69.875C24.2917 70.4583 24 71.1667 24 72V74ZM18 81C17.7167 81 17.4792 80.9042 17.2875 80.7125C17.0958 80.5208 17 80.2833 17 80C17 79.7167 17.0958 79.4792 17.2875 79.2875C17.4792 79.0958 17.7167 79 18 79H38C38.2833 79 38.5208 79.0958 38.7125 79.2875C38.9042 79.4792 39 79.7167 39 80C39 80.2833 38.9042 80.5208 38.7125 80.7125C38.5208 80.9042 38.2833 81 38 81H18ZM20 78C19.45 78 18.9792 77.8042 18.5875 77.4125C18.1958 77.0208 18 76.55 18 76V65C18 64.45 18.1958 63.9792 18.5875 63.5875C18.9792 63.1958 19.45 63 20 63H36C36.55 63 37.0208 63.1958 37.4125 63.5875C37.8042 63.9792 38 64.45 38 65V76C38 76.55 37.8042 77.0208 37.4125 77.4125C37.0208 77.8042 36.55 78 36 78H20Z" fill="#1C1B1F"/>
</g>
<rect x="0.5" y="0.5" width="55" height="99" rx="4.5" stroke="#9747FF" stroke-dasharray="10 5"/>
</svg>
