<svg width="56" height="100" viewBox="0 0 56 100" fill="none" xmlns="http://www.w3.org/2000/svg">
<mask id="mask0_614_39663" style="mask-type:alpha" maskUnits="userSpaceOnUse" x="16" y="16" width="24" height="24">
<rect x="16" y="16" width="24" height="24" fill="#D9D9D9"/>
</mask>
<g mask="url(#mask0_614_39663)">
<path d="M35.6 37L29.3 30.7C28.8 31.1 28.225 31.4167 27.575 31.65C26.925 31.8833 26.2333 32 25.5 32C23.6833 32 22.1458 31.3708 20.8875 30.1125C19.6292 28.8542 19 27.3167 19 25.5C19 23.6833 19.6292 22.1458 20.8875 20.8875C22.1458 19.6292 23.6833 19 25.5 19C27.3167 19 28.8542 19.6292 30.1125 20.8875C31.3708 22.1458 32 23.6833 32 25.5C32 26.2333 31.8833 26.925 31.65 27.575C31.4167 28.225 31.1 28.8 30.7 29.3L37 35.6L35.6 37ZM25.5 30C26.75 30 27.8125 29.5625 28.6875 28.6875C29.5625 27.8125 30 26.75 30 25.5C30 24.25 29.5625 23.1875 28.6875 22.3125C27.8125 21.4375 26.75 21 25.5 21C24.25 21 23.1875 21.4375 22.3125 22.3125C21.4375 23.1875 21 24.25 21 25.5C21 26.75 21.4375 27.8125 22.3125 28.6875C23.1875 29.5625 24.25 30 25.5 30Z" fill="#1C1B1F"/>
</g>
<mask id="mask1_614_39663" style="mask-type:alpha" maskUnits="userSpaceOnUse" x="16" y="60" width="24" height="24">
<rect x="16" y="60" width="24" height="24" fill="#D9D9D9"/>
</mask>
<g mask="url(#mask1_614_39663)">
<path d="M35.6 81L29.3 74.7C28.8 75.1 28.225 75.4167 27.575 75.65C26.925 75.8833 26.2333 76 25.5 76C23.6833 76 22.1458 75.3708 20.8875 74.1125C19.6292 72.8542 19 71.3167 19 69.5C19 67.6833 19.6292 66.1458 20.8875 64.8875C22.1458 63.6292 23.6833 63 25.5 63C27.3167 63 28.8542 63.6292 30.1125 64.8875C31.3708 66.1458 32 67.6833 32 69.5C32 70.2333 31.8833 70.925 31.65 71.575C31.4167 72.225 31.1 72.8 30.7 73.3L37 79.6L35.6 81ZM25.5 74C26.75 74 27.8125 73.5625 28.6875 72.6875C29.5625 71.8125 30 70.75 30 69.5C30 68.25 29.5625 67.1875 28.6875 66.3125C27.8125 65.4375 26.75 65 25.5 65C24.25 65 23.1875 65.4375 22.3125 66.3125C21.4375 67.1875 21 68.25 21 69.5C21 70.75 21.4375 71.8125 22.3125 72.6875C23.1875 73.5625 24.25 74 25.5 74Z" fill="#1C1B1F"/>
</g>
<rect x="0.5" y="0.5" width="55" height="99" rx="4.5" stroke="#9747FF" stroke-dasharray="10 5"/>
</svg>
