<svg width="56" height="100" viewBox="0 0 56 100" fill="none" xmlns="http://www.w3.org/2000/svg">
<mask id="mask0_646_39741" style="mask-type:alpha" maskUnits="userSpaceOnUse" x="16" y="16" width="24" height="24">
<rect x="16" y="16" width="24" height="24" fill="#D9D9D9"/>
</mask>
<g mask="url(#mask0_646_39741)">
<path d="M34 38C33.1667 38 32.4583 37.7083 31.875 37.125C31.2917 36.5417 31 35.8333 31 35C31 34.8833 31.0083 34.7623 31.025 34.637C31.0417 34.5123 31.0667 34.4 31.1 34.3L24.05 30.2C23.7667 30.45 23.45 30.6457 23.1 30.787C22.75 30.929 22.3833 31 22 31C21.1667 31 20.4583 30.7083 19.875 30.125C19.2917 29.5417 19 28.8333 19 28C19 27.1667 19.2917 26.4583 19.875 25.875C20.4583 25.2917 21.1667 25 22 25C22.3833 25 22.75 25.0707 23.1 25.212C23.45 25.354 23.7667 25.55 24.05 25.8L31.1 21.7C31.0667 21.6 31.0417 21.4877 31.025 21.363C31.0083 21.2377 31 21.1167 31 21C31 20.1667 31.2917 19.4583 31.875 18.875C32.4583 18.2917 33.1667 18 34 18C34.8333 18 35.5417 18.2917 36.125 18.875C36.7083 19.4583 37 20.1667 37 21C37 21.8333 36.7083 22.5417 36.125 23.125C35.5417 23.7083 34.8333 24 34 24C33.6167 24 33.25 23.929 32.9 23.787C32.55 23.6457 32.2333 23.45 31.95 23.2L24.9 27.3C24.9333 27.4 24.9583 27.5123 24.975 27.637C24.9917 27.7623 25 27.8833 25 28C25 28.1167 24.9917 28.2373 24.975 28.362C24.9583 28.4873 24.9333 28.6 24.9 28.7L31.95 32.8C32.2333 32.55 32.55 32.354 32.9 32.212C33.25 32.0707 33.6167 32 34 32C34.8333 32 35.5417 32.2917 36.125 32.875C36.7083 33.4583 37 34.1667 37 35C37 35.8333 36.7083 36.5417 36.125 37.125C35.5417 37.7083 34.8333 38 34 38ZM34 22C34.2833 22 34.5207 21.9043 34.712 21.713C34.904 21.521 35 21.2833 35 21C35 20.7167 34.904 20.479 34.712 20.287C34.5207 20.0957 34.2833 20 34 20C33.7167 20 33.4793 20.0957 33.288 20.287C33.096 20.479 33 20.7167 33 21C33 21.2833 33.096 21.521 33.288 21.713C33.4793 21.9043 33.7167 22 34 22ZM22 29C22.2833 29 22.521 28.904 22.713 28.712C22.9043 28.5207 23 28.2833 23 28C23 27.7167 22.9043 27.479 22.713 27.287C22.521 27.0957 22.2833 27 22 27C21.7167 27 21.479 27.0957 21.287 27.287C21.0957 27.479 21 27.7167 21 28C21 28.2833 21.0957 28.5207 21.287 28.712C21.479 28.904 21.7167 29 22 29ZM34 36C34.2833 36 34.5207 35.904 34.712 35.712C34.904 35.5207 35 35.2833 35 35C35 34.7167 34.904 34.4793 34.712 34.288C34.5207 34.096 34.2833 34 34 34C33.7167 34 33.4793 34.096 33.288 34.288C33.096 34.4793 33 34.7167 33 35C33 35.2833 33.096 35.5207 33.288 35.712C33.4793 35.904 33.7167 36 34 36Z" fill="#1C1B1F"/>
</g>
<mask id="mask1_646_39741" style="mask-type:alpha" maskUnits="userSpaceOnUse" x="16" y="60" width="24" height="24">
<rect x="16" y="60" width="24" height="24" fill="#D9D9D9"/>
</mask>
<g mask="url(#mask1_646_39741)">
<path d="M34 82C33.1667 82 32.4583 81.7083 31.875 81.125C31.2917 80.5417 31 79.8333 31 79C31 78.8833 31.0083 78.7623 31.025 78.637C31.0417 78.5123 31.0667 78.4 31.1 78.3L24.05 74.2C23.7667 74.45 23.45 74.6457 23.1 74.787C22.75 74.929 22.3833 75 22 75C21.1667 75 20.4583 74.7083 19.875 74.125C19.2917 73.5417 19 72.8333 19 72C19 71.1667 19.2917 70.4583 19.875 69.875C20.4583 69.2917 21.1667 69 22 69C22.3833 69 22.75 69.0707 23.1 69.212C23.45 69.354 23.7667 69.55 24.05 69.8L31.1 65.7C31.0667 65.6 31.0417 65.4877 31.025 65.363C31.0083 65.2377 31 65.1167 31 65C31 64.1667 31.2917 63.4583 31.875 62.875C32.4583 62.2917 33.1667 62 34 62C34.8333 62 35.5417 62.2917 36.125 62.875C36.7083 63.4583 37 64.1667 37 65C37 65.8333 36.7083 66.5417 36.125 67.125C35.5417 67.7083 34.8333 68 34 68C33.6167 68 33.25 67.929 32.9 67.787C32.55 67.6457 32.2333 67.45 31.95 67.2L24.9 71.3C24.9333 71.4 24.9583 71.5123 24.975 71.637C24.9917 71.7623 25 71.8833 25 72C25 72.1167 24.9917 72.2373 24.975 72.362C24.9583 72.4873 24.9333 72.6 24.9 72.7L31.95 76.8C32.2333 76.55 32.55 76.354 32.9 76.212C33.25 76.0707 33.6167 76 34 76C34.8333 76 35.5417 76.2917 36.125 76.875C36.7083 77.4583 37 78.1667 37 79C37 79.8333 36.7083 80.5417 36.125 81.125C35.5417 81.7083 34.8333 82 34 82Z" fill="#1C1B1F"/>
</g>
<rect x="0.5" y="0.5" width="55" height="99" rx="4.5" stroke="#9747FF" stroke-dasharray="10 5"/>
</svg>
