<svg width="56" height="101" viewBox="0 0 56 101" fill="none" xmlns="http://www.w3.org/2000/svg">
<mask id="mask0_638_39699" style="mask-type:alpha" maskUnits="userSpaceOnUse" x="16" y="16" width="24" height="25">
<rect x="16" y="16.2582" width="24" height="24" fill="#D9D9D9"/>
</mask>
<g mask="url(#mask0_638_39699)">
<path d="M23 38.2582C22.45 38.2582 21.9793 38.0625 21.588 37.6712C21.196 37.2792 21 36.8082 21 36.2582C21 35.7082 21.196 35.2372 21.588 34.8452C21.9793 34.4538 22.45 34.2582 23 34.2582C23.55 34.2582 24.0207 34.4538 24.412 34.8452C24.804 35.2372 25 35.7082 25 36.2582C25 36.8082 24.804 37.2792 24.412 37.6712C24.0207 38.0625 23.55 38.2582 23 38.2582ZM33 38.2582C32.45 38.2582 31.9793 38.0625 31.588 37.6712C31.196 37.2792 31 36.8082 31 36.2582C31 35.7082 31.196 35.2372 31.588 34.8452C31.9793 34.4538 32.45 34.2582 33 34.2582C33.55 34.2582 34.021 34.4538 34.413 34.8452C34.8043 35.2372 35 35.7082 35 36.2582C35 36.8082 34.8043 37.2792 34.413 37.6712C34.021 38.0625 33.55 38.2582 33 38.2582ZM22.15 22.2582L24.55 27.2582H31.55L34.3 22.2582H22.15ZM21.2 20.2582H35.95C36.3333 20.2582 36.625 20.4288 36.825 20.7702C37.025 21.1122 37.0333 21.4582 36.85 21.8082L33.3 28.2082C33.1167 28.5415 32.8707 28.7998 32.562 28.9832C32.254 29.1665 31.9167 29.2582 31.55 29.2582H24.1L23 31.2582H35V33.2582H23C22.25 33.2582 21.6833 32.9288 21.3 32.2702C20.9167 31.6122 20.9 30.9582 21.25 30.3082L22.6 27.8582L19 20.2582H17V18.2582H20.25L21.2 20.2582Z" fill="white"/>
</g>
<mask id="mask1_638_39699" style="mask-type:alpha" maskUnits="userSpaceOnUse" x="16" y="60" width="24" height="25">
<rect x="16" y="60.2582" width="24" height="24" fill="#D9D9D9"/>
</mask>
<g mask="url(#mask1_638_39699)">
<path d="M23 82.2582C22.45 82.2582 21.9793 82.0625 21.588 81.6712C21.196 81.2792 21 80.8082 21 80.2582C21 79.7082 21.196 79.2372 21.588 78.8452C21.9793 78.4538 22.45 78.2582 23 78.2582C23.55 78.2582 24.0207 78.4538 24.412 78.8452C24.804 79.2372 25 79.7082 25 80.2582C25 80.8082 24.804 81.2792 24.412 81.6712C24.0207 82.0625 23.55 82.2582 23 82.2582ZM33 82.2582C32.45 82.2582 31.9793 82.0625 31.588 81.6712C31.196 81.2792 31 80.8082 31 80.2582C31 79.7082 31.196 79.2372 31.588 78.8452C31.9793 78.4538 32.45 78.2582 33 78.2582C33.55 78.2582 34.021 78.4538 34.413 78.8452C34.8043 79.2372 35 79.7082 35 80.2582C35 80.8082 34.8043 81.2792 34.413 81.6712C34.021 82.0625 33.55 82.2582 33 82.2582ZM21.2 64.2582H35.95C36.3333 64.2582 36.625 64.4288 36.825 64.7702C37.025 65.1122 37.0333 65.4582 36.85 65.8082L33.3 72.2082C33.1167 72.5415 32.8707 72.7998 32.562 72.9832C32.254 73.1665 31.9167 73.2582 31.55 73.2582H24.1L23 75.2582H35V77.2582H23C22.25 77.2582 21.6833 76.9288 21.3 76.2702C20.9167 75.6122 20.9 74.9582 21.25 74.3082L22.6 71.8582L19 64.2582H17V62.2582H20.25L21.2 64.2582Z" fill="white"/>
</g>
<rect x="0.5" y="0.758179" width="55" height="99" rx="4.5" stroke="#9747FF" stroke-dasharray="10 5"/>
</svg>
