<svg width="56" height="100" viewBox="0 0 56 100" fill="none" xmlns="http://www.w3.org/2000/svg">
<mask id="mask0_693_40636" style="mask-type:alpha" maskUnits="userSpaceOnUse" x="16" y="16" width="25" height="24">
<rect x="16.0781" y="16" width="24" height="24" fill="#D9D9D9"/>
</mask>
<g mask="url(#mask0_693_40636)">
<path d="M20.0781 30C19.5281 30 19.0573 29.8042 18.6656 29.4125C18.274 29.0208 18.0781 28.55 18.0781 28C18.0781 27.45 18.274 26.9792 18.6656 26.5875C19.0573 26.1958 19.5281 26 20.0781 26C20.6281 26 21.099 26.1958 21.4906 26.5875C21.8823 26.9792 22.0781 27.45 22.0781 28C22.0781 28.55 21.8823 29.0208 21.4906 29.4125C21.099 29.8042 20.6281 30 20.0781 30ZM21.7281 35.7L20.3281 34.3L24.6781 29.95L26.0781 31.35L21.7281 35.7ZM24.7281 26L20.3781 21.65L21.7781 20.25L26.1281 24.6L24.7281 26ZM28.0781 38C27.5281 38 27.0573 37.8042 26.6656 37.4125C26.274 37.0208 26.0781 36.55 26.0781 36C26.0781 35.45 26.274 34.9792 26.6656 34.5875C27.0573 34.1958 27.5281 34 28.0781 34C28.6281 34 29.099 34.1958 29.4906 34.5875C29.8823 34.9792 30.0781 35.45 30.0781 36C30.0781 36.55 29.8823 37.0208 29.4906 37.4125C29.099 37.8042 28.6281 38 28.0781 38ZM28.0781 22C27.5281 22 27.0573 21.8042 26.6656 21.4125C26.274 21.0208 26.0781 20.55 26.0781 20C26.0781 19.45 26.274 18.9792 26.6656 18.5875C27.0573 18.1958 27.5281 18 28.0781 18C28.6281 18 29.099 18.1958 29.4906 18.5875C29.8823 18.9792 30.0781 19.45 30.0781 20C30.0781 20.55 29.8823 21.0208 29.4906 21.4125C29.099 21.8042 28.6281 22 28.0781 22ZM31.4281 26.05L30.0281 24.6L34.4281 20.25L35.8281 21.65L31.4281 26.05ZM34.4281 35.7L30.0781 31.35L31.4781 29.95L35.8281 34.3L34.4281 35.7ZM36.0781 30C35.5281 30 35.0573 29.8042 34.6656 29.4125C34.274 29.0208 34.0781 28.55 34.0781 28C34.0781 27.45 34.274 26.9792 34.6656 26.5875C35.0573 26.1958 35.5281 26 36.0781 26C36.6281 26 37.099 26.1958 37.4906 26.5875C37.8823 26.9792 38.0781 27.45 38.0781 28C38.0781 28.55 37.8823 29.0208 37.4906 29.4125C37.099 29.8042 36.6281 30 36.0781 30Z" fill="#1C1B1F"/>
</g>
<mask id="mask1_693_40636" style="mask-type:alpha" maskUnits="userSpaceOnUse" x="16" y="60" width="24" height="24">
<rect x="16" y="60" width="24" height="24" fill="#D9D9D9"/>
</mask>
<g mask="url(#mask1_693_40636)">
<path d="M20 74C19.45 74 18.9792 73.8042 18.5875 73.4125C18.1958 73.0208 18 72.55 18 72C18 71.45 18.1958 70.9792 18.5875 70.5875C18.9792 70.1958 19.45 70 20 70C20.55 70 21.0208 70.1958 21.4125 70.5875C21.8042 70.9792 22 71.45 22 72C22 72.55 21.8042 73.0208 21.4125 73.4125C21.0208 73.8042 20.55 74 20 74ZM21.65 79.7L20.25 78.3L24.6 73.95L26 75.35L21.65 79.7ZM24.65 70L20.3 65.65L21.7 64.25L26.05 68.6L24.65 70ZM28 82C27.45 82 26.9792 81.8042 26.5875 81.4125C26.1958 81.0208 26 80.55 26 80C26 79.45 26.1958 78.9792 26.5875 78.5875C26.9792 78.1958 27.45 78 28 78C28.55 78 29.0208 78.1958 29.4125 78.5875C29.8042 78.9792 30 79.45 30 80C30 80.55 29.8042 81.0208 29.4125 81.4125C29.0208 81.8042 28.55 82 28 82ZM28 66C27.45 66 26.9792 65.8042 26.5875 65.4125C26.1958 65.0208 26 64.55 26 64C26 63.45 26.1958 62.9792 26.5875 62.5875C26.9792 62.1958 27.45 62 28 62C28.55 62 29.0208 62.1958 29.4125 62.5875C29.8042 62.9792 30 63.45 30 64C30 64.55 29.8042 65.0208 29.4125 65.4125C29.0208 65.8042 28.55 66 28 66ZM31.35 70.05L29.95 68.6L34.35 64.25L35.75 65.65L31.35 70.05ZM34.35 79.7L30 75.35L31.4 73.95L35.75 78.3L34.35 79.7ZM36 74C35.45 74 34.9792 73.8042 34.5875 73.4125C34.1958 73.0208 34 72.55 34 72C34 71.45 34.1958 70.9792 34.5875 70.5875C34.9792 70.1958 35.45 70 36 70C36.55 70 37.0208 70.1958 37.4125 70.5875C37.8042 70.9792 38 71.45 38 72C38 72.55 37.8042 73.0208 37.4125 73.4125C37.0208 73.8042 36.55 74 36 74Z" fill="#1C1B1F"/>
</g>
<rect x="0.5" y="0.5" width="55" height="99" rx="4.5" stroke="#9747FF" stroke-dasharray="10 5"/>
</svg>
