<svg width="56" height="100" viewBox="0 0 56 100" fill="none" xmlns="http://www.w3.org/2000/svg">
<mask id="mask0_663_39844" style="mask-type:alpha" maskUnits="userSpaceOnUse" x="16" y="16" width="24" height="24">
<rect x="16" y="16" width="24" height="24" fill="#D9D9D9"/>
</mask>
<g mask="url(#mask0_663_39844)">
<path d="M22 28H24V26H22V28ZM22 32H30V30H22V32ZM32 32H34V30H32V32ZM26 28H34V26H26V28ZM20 36C19.45 36 18.9793 35.8043 18.588 35.413C18.196 35.021 18 34.55 18 34V22C18 21.45 18.196 20.9793 18.588 20.588C18.9793 20.196 19.45 20 20 20H36C36.55 20 37.021 20.196 37.413 20.588C37.8043 20.9793 38 21.45 38 22V34C38 34.55 37.8043 35.021 37.413 35.413C37.021 35.8043 36.55 36 36 36H20ZM20 34H36V22H20V34Z" fill="#1C1B1F"/>
</g>
<mask id="mask1_663_39844" style="mask-type:alpha" maskUnits="userSpaceOnUse" x="16" y="60" width="24" height="24">
<rect x="16" y="60" width="24" height="24" fill="#D9D9D9"/>
</mask>
<g mask="url(#mask1_663_39844)">
<path d="M22 72H24V70H22V72ZM22 76H30V74H22V76ZM32 76H34V74H32V76ZM26 72H34V70H26V72ZM20 80C19.45 80 18.9793 79.8043 18.588 79.413C18.196 79.021 18 78.55 18 78V66C18 65.45 18.196 64.9793 18.588 64.588C18.9793 64.196 19.45 64 20 64H36C36.55 64 37.021 64.196 37.413 64.588C37.8043 64.9793 38 65.45 38 66V78C38 78.55 37.8043 79.021 37.413 79.413C37.021 79.8043 36.55 80 36 80H20Z" fill="#1C1B1F"/>
</g>
<rect x="0.5" y="0.5" width="55" height="99" rx="4.5" stroke="#9747FF" stroke-dasharray="10 5"/>
</svg>
