<svg width="56" height="100" viewBox="0 0 56 100" fill="none" xmlns="http://www.w3.org/2000/svg">
<mask id="mask0_696_40455" style="mask-type:alpha" maskUnits="userSpaceOnUse" x="16" y="16" width="24" height="24">
<rect x="16" y="16" width="24" height="24" fill="#D9D9D9"/>
</mask>
<g mask="url(#mask0_696_40455)">
<path d="M35.05 37.6L32.125 34.7L29.925 36.9L29.225 36.2C28.8417 35.8167 28.65 35.3417 28.65 34.775C28.65 34.2084 28.8417 33.7334 29.225 33.35L33.45 29.125C33.8333 28.7417 34.3083 28.55 34.875 28.55C35.4417 28.55 35.9167 28.7417 36.3 29.125L37 29.825L34.8 32.025L37.7 34.95C37.9 35.15 38 35.3834 38 35.65C38 35.9167 37.9 36.15 37.7 36.35L36.45 37.6C36.25 37.8 36.0167 37.9 35.75 37.9C35.4833 37.9 35.25 37.8 35.05 37.6ZM38 21.9L26.65 33.25L26.775 33.35C27.1583 33.7334 27.35 34.2084 27.35 34.775C27.35 35.3417 27.1583 35.8167 26.775 36.2L26.075 36.9L23.875 34.7L20.95 37.6C20.75 37.8 20.5167 37.9 20.25 37.9C19.9833 37.9 19.75 37.8 19.55 37.6L18.3 36.35C18.1 36.15 18 35.9167 18 35.65C18 35.3834 18.1 35.15 18.3 34.95L21.2 32.025L19 29.825L19.7 29.125C20.0833 28.7417 20.5583 28.55 21.125 28.55C21.6917 28.55 22.1667 28.7417 22.55 29.125L22.65 29.25L34 17.9H38V21.9ZM22.95 26.85L18 21.9V17.9H22L26.95 22.85L25.525 24.25L21.175 19.9H20V21.075L24.35 25.425L22.95 26.85ZM25.25 31.825L36 21.075V19.9H34.825L24.075 30.65L25.25 31.825Z" fill="#1C1B1F"/>
</g>
<mask id="mask1_696_40455" style="mask-type:alpha" maskUnits="userSpaceOnUse" x="16" y="60" width="24" height="24">
<rect x="16" y="60" width="24" height="24" fill="#D9D9D9"/>
</mask>
<g mask="url(#mask1_696_40455)">
<path d="M35.05 81.6L32.125 78.7L29.925 80.9L29.225 80.2C28.8417 79.8167 28.65 79.3417 28.65 78.775C28.65 78.2084 28.8417 77.7334 29.225 77.35L33.45 73.125C33.8333 72.7417 34.3083 72.55 34.875 72.55C35.4417 72.55 35.9167 72.7417 36.3 73.125L37 73.825L34.8 76.025L37.7 78.95C37.9 79.15 38 79.3834 38 79.65C38 79.9167 37.9 80.15 37.7 80.35L36.45 81.6C36.25 81.8 36.0167 81.9 35.75 81.9C35.4833 81.9 35.25 81.8 35.05 81.6ZM38 65.9L26.65 77.25L26.775 77.35C27.1583 77.7334 27.35 78.2084 27.35 78.775C27.35 79.3417 27.1583 79.8167 26.775 80.2L26.075 80.9L23.875 78.7L20.95 81.6C20.75 81.8 20.5167 81.9 20.25 81.9C19.9833 81.9 19.75 81.8 19.55 81.6L18.3 80.35C18.1 80.15 18 79.9167 18 79.65C18 79.3834 18.1 79.15 18.3 78.95L21.2 76.025L19 73.825L19.7 73.125C20.0833 72.7417 20.5583 72.55 21.125 72.55C21.6917 72.55 22.1667 72.7417 22.55 73.125L22.65 73.25L34 61.9H38V65.9ZM22.95 70.85L18 65.9V61.9H22L26.95 66.85L22.95 70.85Z" fill="#1C1B1F"/>
</g>
<rect x="0.5" y="0.5" width="55" height="99" rx="4.5" stroke="#9747FF" stroke-dasharray="10 5"/>
</svg>
