<svg width="56" height="100" viewBox="0 0 56 100" fill="none" xmlns="http://www.w3.org/2000/svg">
<mask id="mask0_693_40630" style="mask-type:alpha" maskUnits="userSpaceOnUse" x="16" y="16" width="24" height="24">
<rect x="16" y="16" width="24" height="24" fill="#D9D9D9"/>
</mask>
<g mask="url(#mask0_693_40630)">
<path d="M22 36C21.45 36 20.9792 35.8042 20.5875 35.4125C20.1958 35.0208 20 34.55 20 34V31H22V34H34V31H36V34C36 34.55 35.8042 35.0208 35.4125 35.4125C35.0208 35.8042 34.55 36 34 36H22ZM27 32V23.85L24.4 26.45L23 25L28 20L33 25L31.6 26.45L29 23.85V32H27Z" fill="#1C1B1F"/>
</g>
<mask id="mask1_693_40630" style="mask-type:alpha" maskUnits="userSpaceOnUse" x="16" y="60" width="24" height="24">
<rect x="16" y="60" width="24" height="24" fill="#D9D9D9"/>
</mask>
<g mask="url(#mask1_693_40630)">
<path d="M22 80C21.45 80 20.9792 79.8042 20.5875 79.4125C20.1958 79.0208 20 78.55 20 78V75H22V78H34V75H36V78C36 78.55 35.8042 79.0208 35.4125 79.4125C35.0208 79.8042 34.55 80 34 80H22ZM27 76V67.85L24.4 70.45L23 69L28 64L33 69L31.6 70.45L29 67.85V76H27Z" fill="#1C1B1F"/>
</g>
<rect x="0.5" y="0.5" width="55" height="99" rx="4.5" stroke="#9747FF" stroke-dasharray="10 5"/>
</svg>
