<svg width="56" height="100" viewBox="0 0 56 100" fill="none" xmlns="http://www.w3.org/2000/svg">
<mask id="mask0_610_39391" style="mask-type:alpha" maskUnits="userSpaceOnUse" x="16" y="16" width="24" height="24">
<rect x="16" y="16" width="24" height="24" fill="#D9D9D9"/>
</mask>
<g mask="url(#mask0_610_39391)">
<path d="M25 32H27V29H30V27H27V24H25V27H22V29H25V32ZM20 36C19.45 36 18.9792 35.8042 18.5875 35.4125C18.1958 35.0208 18 34.55 18 34V22C18 21.45 18.1958 20.9792 18.5875 20.5875C18.9792 20.1958 19.45 20 20 20H32C32.55 20 33.0208 20.1958 33.4125 20.5875C33.8042 20.9792 34 21.45 34 22V26.5L38 22.5V33.5L34 29.5V34C34 34.55 33.8042 35.0208 33.4125 35.4125C33.0208 35.8042 32.55 36 32 36H20ZM20 34H32V22H20V34Z" fill="#1C1B1F"/>
</g>
<mask id="mask1_610_39391" style="mask-type:alpha" maskUnits="userSpaceOnUse" x="16" y="60" width="24" height="24">
<rect x="16" y="60" width="24" height="24" fill="#D9D9D9"/>
</mask>
<g mask="url(#mask1_610_39391)">
<path d="M25 76H27V73H30V71H27V68H25V71H22V73H25V76ZM20 80C19.45 80 18.9792 79.8042 18.5875 79.4125C18.1958 79.0208 18 78.55 18 78V66C18 65.45 18.1958 64.9792 18.5875 64.5875C18.9792 64.1958 19.45 64 20 64H32C32.55 64 33.0208 64.1958 33.4125 64.5875C33.8042 64.9792 34 65.45 34 66V70.5L38 66.5V77.5L34 73.5V78C34 78.55 33.8042 79.0208 33.4125 79.4125C33.0208 79.8042 32.55 80 32 80H20Z" fill="#1C1B1F"/>
</g>
<rect x="0.5" y="0.5" width="55" height="99" rx="4.5" stroke="#9747FF" stroke-dasharray="10 5"/>
</svg>
