<svg width="57" height="100" viewBox="0 0 57 100" fill="none" xmlns="http://www.w3.org/2000/svg">
<mask id="mask0_684_40853" style="mask-type:alpha" maskUnits="userSpaceOnUse" x="16" y="16" width="25" height="24">
<rect x="16.1641" y="16" width="24" height="24" fill="#D9D9D9"/>
</mask>
<g mask="url(#mask0_684_40853)">
<path d="M32.2641 29.3L30.8141 27.85C30.9641 27.0667 30.7391 26.3333 30.1391 25.65C29.5391 24.9667 28.7641 24.7 27.8141 24.85L26.3641 23.4C26.6474 23.2667 26.9349 23.1667 27.2266 23.1C27.5182 23.0333 27.8307 23 28.1641 23C29.4141 23 30.4766 23.4375 31.3516 24.3125C32.2266 25.1875 32.6641 26.25 32.6641 27.5C32.6641 27.8333 32.6307 28.1458 32.5641 28.4375C32.4974 28.7292 32.3974 29.0167 32.2641 29.3ZM35.4641 32.45L34.0141 31.05C34.6474 30.5667 35.2099 30.0375 35.7016 29.4625C36.1932 28.8875 36.6141 28.2333 36.9641 27.5C36.1307 25.8167 34.9349 24.4792 33.3766 23.4875C31.8182 22.4958 30.0807 22 28.1641 22C27.6807 22 27.2057 22.0333 26.7391 22.1C26.2724 22.1667 25.8141 22.2667 25.3641 22.4L23.8141 20.85C24.4974 20.5667 25.1974 20.3542 25.9141 20.2125C26.6307 20.0708 27.3807 20 28.1641 20C30.6807 20 32.9224 20.6958 34.8891 22.0875C36.8557 23.4792 38.2807 25.2833 39.1641 27.5C38.7807 28.4833 38.2766 29.3958 37.6516 30.2375C37.0266 31.0792 36.2974 31.8167 35.4641 32.45ZM35.9641 38.6L31.7641 34.45C31.1807 34.6333 30.5932 34.7708 30.0016 34.8625C29.4099 34.9542 28.7974 35 28.1641 35C25.6474 35 23.4057 34.3042 21.4391 32.9125C19.4724 31.5208 18.0474 29.7167 17.1641 27.5C17.5141 26.6167 17.9557 25.7958 18.4891 25.0375C19.0224 24.2792 19.6307 23.6 20.3141 23L17.5641 20.2L18.9641 18.8L37.3641 37.2L35.9641 38.6ZM21.7141 24.4C21.2307 24.8333 20.7891 25.3083 20.3891 25.825C19.9891 26.3417 19.6474 26.9 19.3641 27.5C20.1974 29.1833 21.3932 30.5208 22.9516 31.5125C24.5099 32.5042 26.2474 33 28.1641 33C28.4974 33 28.8224 32.9792 29.1391 32.9375C29.4557 32.8958 29.7807 32.85 30.1141 32.8L29.2141 31.85C29.0307 31.9 28.8557 31.9375 28.6891 31.9625C28.5224 31.9875 28.3474 32 28.1641 32C26.9141 32 25.8516 31.5625 24.9766 30.6875C24.1016 29.8125 23.6641 28.75 23.6641 27.5C23.6641 27.3167 23.6766 27.1417 23.7016 26.975C23.7266 26.8083 23.7641 26.6333 23.8141 26.45L21.7141 24.4Z" fill="#1C1B1F"/>
</g>
<mask id="mask1_684_40853" style="mask-type:alpha" maskUnits="userSpaceOnUse" x="16" y="60" width="25" height="24">
<rect x="16.1641" y="60" width="24" height="24" fill="#D9D9D9"/>
</mask>
<g mask="url(#mask1_684_40853)">
<path d="M35.9641 82.6L31.7641 78.45C31.1807 78.6333 30.5932 78.7708 30.0016 78.8625C29.4099 78.9542 28.7974 79 28.1641 79C25.6474 79 23.4057 78.3042 21.4391 76.9125C19.4724 75.5208 18.0474 73.7167 17.1641 71.5C17.5141 70.6167 17.9557 69.7958 18.4891 69.0375C19.0224 68.2792 19.6307 67.6 20.3141 67L17.5641 64.2L18.9641 62.8L37.3641 81.2L35.9641 82.6ZM28.1641 76C28.3474 76 28.5182 75.9917 28.6766 75.975C28.8349 75.9583 29.0057 75.925 29.1891 75.875L23.7891 70.475C23.7391 70.6583 23.7057 70.8292 23.6891 70.9875C23.6724 71.1458 23.6641 71.3167 23.6641 71.5C23.6641 72.75 24.1016 73.8125 24.9766 74.6875C25.8516 75.5625 26.9141 76 28.1641 76ZM35.4641 76.45L32.2891 73.3C32.4057 73.0167 32.4974 72.7292 32.5641 72.4375C32.6307 72.1458 32.6641 71.8333 32.6641 71.5C32.6641 70.25 32.2266 69.1875 31.3516 68.3125C30.4766 67.4375 29.4141 67 28.1641 67C27.8307 67 27.5182 67.0333 27.2266 67.1C26.9349 67.1667 26.6474 67.2667 26.3641 67.4L23.8141 64.85C24.4974 64.5667 25.1974 64.3542 25.9141 64.2125C26.6307 64.0708 27.3807 64 28.1641 64C30.6807 64 32.9224 64.6958 34.8891 66.0875C36.8557 67.4792 38.2807 69.2833 39.1641 71.5C38.7807 72.4833 38.2766 73.3958 37.6516 74.2375C37.0266 75.0792 36.2974 75.8167 35.4641 76.45ZM30.8391 71.85L27.8391 68.85C28.3057 68.7667 28.7349 68.8042 29.1266 68.9625C29.5182 69.1208 29.8557 69.35 30.1391 69.65C30.4224 69.95 30.6266 70.2958 30.7516 70.6875C30.8766 71.0792 30.9057 71.4667 30.8391 71.85Z" fill="#1C1B1F"/>
</g>
<rect x="0.664062" y="0.5" width="55" height="99" rx="4.5" stroke="#9747FF" stroke-dasharray="10 5"/>
</svg>
