<svg width="57" height="100" viewBox="0 0 57 100" fill="none" xmlns="http://www.w3.org/2000/svg">
<mask id="mask0_684_40850" style="mask-type:alpha" maskUnits="userSpaceOnUse" x="16" y="16" width="24" height="24">
<rect x="16" y="16" width="24" height="24" fill="#D9D9D9"/>
</mask>
<g mask="url(#mask0_684_40850)">
<path d="M28 32C29.25 32 30.3125 31.5625 31.1875 30.6875C32.0625 29.8125 32.5 28.75 32.5 27.5C32.5 26.25 32.0625 25.1875 31.1875 24.3125C30.3125 23.4375 29.25 23 28 23C26.75 23 25.6875 23.4375 24.8125 24.3125C23.9375 25.1875 23.5 26.25 23.5 27.5C23.5 28.75 23.9375 29.8125 24.8125 30.6875C25.6875 31.5625 26.75 32 28 32ZM28 30.2C27.25 30.2 26.6125 29.9375 26.0875 29.4125C25.5625 28.8875 25.3 28.25 25.3 27.5C25.3 26.75 25.5625 26.1125 26.0875 25.5875C26.6125 25.0625 27.25 24.8 28 24.8C28.75 24.8 29.3875 25.0625 29.9125 25.5875C30.4375 26.1125 30.7 26.75 30.7 27.5C30.7 28.25 30.4375 28.8875 29.9125 29.4125C29.3875 29.9375 28.75 30.2 28 30.2ZM28 35C25.5667 35 23.35 34.3208 21.35 32.9625C19.35 31.6042 17.9 29.7833 17 27.5C17.9 25.2167 19.35 23.3958 21.35 22.0375C23.35 20.6792 25.5667 20 28 20C30.4333 20 32.65 20.6792 34.65 22.0375C36.65 23.3958 38.1 25.2167 39 27.5C38.1 29.7833 36.65 31.6042 34.65 32.9625C32.65 34.3208 30.4333 35 28 35ZM28 33C29.8833 33 31.6125 32.5042 33.1875 31.5125C34.7625 30.5208 35.9667 29.1833 36.8 27.5C35.9667 25.8167 34.7625 24.4792 33.1875 23.4875C31.6125 22.4958 29.8833 22 28 22C26.1167 22 24.3875 22.4958 22.8125 23.4875C21.2375 24.4792 20.0333 25.8167 19.2 27.5C20.0333 29.1833 21.2375 30.5208 22.8125 31.5125C24.3875 32.5042 26.1167 33 28 33Z" fill="#1C1B1F"/>
</g>
<mask id="mask1_684_40850" style="mask-type:alpha" maskUnits="userSpaceOnUse" x="16" y="60" width="25" height="24">
<rect x="16.1641" y="60" width="24" height="24" fill="#D9D9D9"/>
</mask>
<g mask="url(#mask1_684_40850)">
<path d="M28.1641 76C29.4141 76 30.4766 75.5625 31.3516 74.6875C32.2266 73.8125 32.6641 72.75 32.6641 71.5C32.6641 70.25 32.2266 69.1875 31.3516 68.3125C30.4766 67.4375 29.4141 67 28.1641 67C26.9141 67 25.8516 67.4375 24.9766 68.3125C24.1016 69.1875 23.6641 70.25 23.6641 71.5C23.6641 72.75 24.1016 73.8125 24.9766 74.6875C25.8516 75.5625 26.9141 76 28.1641 76ZM28.1641 74.2C27.4141 74.2 26.7766 73.9375 26.2516 73.4125C25.7266 72.8875 25.4641 72.25 25.4641 71.5C25.4641 70.75 25.7266 70.1125 26.2516 69.5875C26.7766 69.0625 27.4141 68.8 28.1641 68.8C28.9141 68.8 29.5516 69.0625 30.0766 69.5875C30.6016 70.1125 30.8641 70.75 30.8641 71.5C30.8641 72.25 30.6016 72.8875 30.0766 73.4125C29.5516 73.9375 28.9141 74.2 28.1641 74.2ZM28.1641 79C25.7307 79 23.5141 78.3208 21.5141 76.9625C19.5141 75.6042 18.0641 73.7833 17.1641 71.5C18.0641 69.2167 19.5141 67.3958 21.5141 66.0375C23.5141 64.6792 25.7307 64 28.1641 64C30.5974 64 32.8141 64.6792 34.8141 66.0375C36.8141 67.3958 38.2641 69.2167 39.1641 71.5C38.2641 73.7833 36.8141 75.6042 34.8141 76.9625C32.8141 78.3208 30.5974 79 28.1641 79Z" fill="#1C1B1F"/>
</g>
<rect x="0.5" y="0.5" width="55.1641" height="99" rx="4.5" stroke="#9747FF" stroke-dasharray="10 5"/>
</svg>
